<svg width="12" height="7" viewBox="0 0 12 7" fill="none" xmlns="http://www.w3.org/2000/svg">
<path d="M0.66 6V0.5H1.45V1.16H1.63L1.49 1.4C1.49 1.09333 1.57 0.85 1.73 0.669999C1.89667 0.49 2.12 0.4 2.4 0.4C2.70667 0.4 2.94333 0.513333 3.11 0.74C3.27667 0.966666 3.36 1.28667 3.36 1.7L3.09 1.16H3.51L3.32 1.4C3.32 1.09333 3.40333 0.85 3.57 0.669999C3.74333 0.49 3.97 0.4 4.25 0.4C4.59667 0.4 4.86333 0.53 5.05 0.79C5.24333 1.05 5.34 1.39333 5.34 1.82V6H4.51V1.81C4.51 1.58333 4.46 1.40667 4.36 1.28C4.26667 1.15333 4.12667 1.09 3.94 1.09C3.76 1.09 3.61667 1.15333 3.51 1.28C3.41 1.4 3.36 1.57333 3.36 1.8V6H2.64V1.81C2.64 1.57667 2.58667 1.4 2.48 1.28C2.38 1.15333 2.23667 1.09 2.05 1.09C1.86333 1.09 1.72333 1.15333 1.63 1.28C1.53667 1.4 1.49 1.57333 1.49 1.8V6H0.66ZM8.99609 6.1C8.56276 6.1 8.18276 6.01333 7.85609 5.84C7.53609 5.66667 7.28609 5.42333 7.10609 5.11C6.93276 4.79 6.84609 4.42 6.84609 4V2.5C6.84609 2.07333 6.93276 1.70333 7.10609 1.39C7.28609 1.07667 7.53609 0.833333 7.85609 0.66C8.18276 0.486667 8.56276 0.4 8.99609 0.4C9.42943 0.4 9.80609 0.486667 10.1261 0.66C10.4528 0.833333 10.7028 1.07667 10.8761 1.39C11.0561 1.70333 11.1461 2.07333 11.1461 2.5V3.47H7.72609V4C7.72609 4.43333 7.83609 4.76667 8.05609 5C8.27609 5.22667 8.58943 5.34 8.99609 5.34C9.34276 5.34 9.62276 5.28 9.83609 5.16C10.0494 5.03333 10.1794 4.84667 10.2261 4.6H11.1261C11.0661 5.06 10.8394 5.42667 10.4461 5.7C10.0594 5.96667 9.57609 6.1 8.99609 6.1ZM10.2661 2.87V2.5C10.2661 2.06667 10.1561 1.73333 9.93609 1.5C9.72276 1.26667 9.40943 1.15 8.99609 1.15C8.58943 1.15 8.27609 1.26667 8.05609 1.5C7.83609 1.73333 7.72609 2.06667 7.72609 2.5V2.79H10.3361L10.2661 2.87Z" fill="#2D2A2A"/>
</svg>
