<svg width="531" height="602" viewBox="0 0 531 602" fill="none" xmlns="http://www.w3.org/2000/svg">
<path d="M0 8C0 3.58172 3.58172 0 8 0H523C527.418 0 531 3.58172 531 8V594C531 598.418 527.418 602 523 602H8C3.58172 602 0 598.418 0 594V8Z" fill="#C5C5C5"/>
<path d="M0 23C0 19.6863 2.68629 17 6 17H525C528.314 17 531 19.6863 531 23V596C531 599.314 528.314 602 525 602H6C2.68629 602 0 599.314 0 596V23Z" fill="#F8F2E3"/>
<path d="M0 8.5C0 3.80558 3.80558 0 8.5 0H522.5C527.194 0 531 3.80558 531 8.5C531 13.1944 527.194 17 522.5 17H8.5C3.80558 17 0 13.1944 0 8.5Z" fill="#D9D9D9"/>
<path d="M17 8C17 10.2091 15.2091 12 13 12C10.7909 12 9 10.2091 9 8C9 5.79086 10.7909 4 13 4C15.2091 4 17 5.79086 17 8Z" fill="#FF5B5B"/>
<path d="M43 8C43 10.2091 41.2091 12 39 12C36.7909 12 35 10.2091 35 8C35 5.79086 36.7909 4 39 4C41.2091 4 43 5.79086 43 8Z" fill="#0ABA04"/>
<path d="M30 8C30 10.2091 28.2091 12 26 12C23.7909 12 22 10.2091 22 8C22 5.79086 23.7909 4 26 4C28.2091 4 30 5.79086 30 8Z" fill="#FFD35B"/>
<path d="M226.85 13V12.18H228.8V8.32H227.1V7.5H229.7V12.18H231.55V13H226.85ZM229.15 6.51C228.93 6.51 228.757 6.45333 228.63 6.34C228.503 6.22667 228.44 6.07333 228.44 5.88C228.44 5.68 228.503 5.52333 228.63 5.41C228.757 5.29 228.93 5.23 229.15 5.23C229.37 5.23 229.543 5.29 229.67 5.41C229.797 5.52333 229.86 5.68 229.86 5.88C229.86 6.07333 229.797 6.22667 229.67 6.34C229.543 6.45333 229.37 6.51 229.15 6.51Z" fill="#2D2A2A"/>
<path d="M232.916 13V7.5H233.816V8.55H234.006L233.816 8.76C233.816 8.32667 233.946 7.99333 234.206 7.76C234.466 7.52 234.826 7.4 235.286 7.4C235.839 7.4 236.279 7.57 236.606 7.91C236.933 8.25 237.096 8.71333 237.096 9.3V13H236.196V9.4C236.196 9.00667 236.089 8.70667 235.876 8.5C235.669 8.28667 235.386 8.18 235.026 8.18C234.653 8.18 234.356 8.29333 234.136 8.52C233.923 8.74667 233.816 9.07333 233.816 9.5V13H232.916Z" fill="#2D2A2A"/>
<path d="M241.592 13C241.119 13 240.749 12.8733 240.482 12.62C240.222 12.3667 240.092 12.01 240.092 11.55V8.32H238.542V7.5H240.092V5.95H240.992V7.5H243.192V8.32H240.992V11.55C240.992 11.97 241.192 12.18 241.592 12.18H243.092V13H241.592Z" fill="#2D2A2A"/>
<path d="M245.098 13V7.5H245.978V8.55H246.188L245.898 9.2C245.898 8.60667 246.025 8.16 246.278 7.86C246.538 7.55333 246.922 7.4 247.428 7.4C248.008 7.4 248.468 7.58333 248.808 7.95C249.155 8.31 249.328 8.8 249.328 9.42V9.75H248.428V9.5C248.428 9.06667 248.322 8.73667 248.108 8.51C247.902 8.27667 247.605 8.16 247.218 8.16C246.838 8.16 246.538 8.27667 246.318 8.51C246.105 8.74333 245.998 9.07333 245.998 9.5V13H245.098Z" fill="#2D2A2A"/>
<path d="M252.984 13.08C252.544 13.08 252.164 12.9967 251.844 12.83C251.524 12.6633 251.274 12.4233 251.094 12.11C250.921 11.79 250.834 11.4133 250.834 10.98V9.52C250.834 9.08 250.921 8.70333 251.094 8.39C251.274 8.07667 251.524 7.83667 251.844 7.67C252.164 7.50333 252.544 7.42 252.984 7.42C253.424 7.42 253.804 7.50333 254.124 7.67C254.444 7.83667 254.691 8.07667 254.864 8.39C255.044 8.70333 255.134 9.07667 255.134 9.51V10.98C255.134 11.4133 255.044 11.79 254.864 12.11C254.691 12.4233 254.444 12.6633 254.124 12.83C253.804 12.9967 253.424 13.08 252.984 13.08ZM252.984 12.28C253.378 12.28 253.684 12.17 253.904 11.95C254.124 11.73 254.234 11.4067 254.234 10.98V9.52C254.234 9.09333 254.124 8.77 253.904 8.55C253.684 8.33 253.378 8.22 252.984 8.22C252.598 8.22 252.291 8.33 252.064 8.55C251.844 8.77 251.734 9.09333 251.734 9.52V10.98C251.734 11.4067 251.844 11.73 252.064 11.95C252.291 12.17 252.598 12.28 252.984 12.28Z" fill="#2D2A2A"/>
<path d="M258.66 13.1C258.114 13.1 257.67 12.9167 257.33 12.55C256.997 12.1833 256.83 11.6867 256.83 11.06V9.45C256.83 8.81667 256.997 8.31667 257.33 7.95C257.664 7.58333 258.107 7.4 258.66 7.4C259.114 7.4 259.477 7.52333 259.75 7.77C260.024 8.01667 260.16 8.34667 260.16 8.76L259.98 8.55H260.18L260.16 7.3V5.7H261.06V13H260.16V11.95H259.98L260.16 11.74C260.16 12.16 260.024 12.4933 259.75 12.74C259.477 12.98 259.114 13.1 258.66 13.1ZM258.96 12.32C259.334 12.32 259.627 12.2033 259.84 11.97C260.054 11.7367 260.16 11.4133 260.16 11V9.5C260.16 9.08667 260.054 8.76333 259.84 8.53C259.627 8.29667 259.334 8.18 258.96 8.18C258.58 8.18 258.28 8.29333 258.06 8.52C257.84 8.74667 257.73 9.07333 257.73 9.5V11C257.73 11.4267 257.84 11.7533 258.06 11.98C258.28 12.2067 258.58 12.32 258.96 12.32Z" fill="#2D2A2A"/>
<path d="M264.967 13.1C264.333 13.1 263.827 12.9133 263.447 12.54C263.067 12.16 262.877 11.6467 262.877 11V7.5H263.777V11C263.777 11.4133 263.883 11.7367 264.097 11.97C264.31 12.1967 264.6 12.31 264.967 12.31C265.34 12.31 265.633 12.1967 265.847 11.97C266.067 11.7367 266.177 11.4133 266.177 11V7.5H267.077V11C267.077 11.6467 266.883 12.16 266.497 12.54C266.11 12.9133 265.6 13.1 264.967 13.1Z" fill="#2D2A2A"/>
<path d="M271.013 13.1C270.573 13.1 270.186 13.0167 269.853 12.85C269.526 12.6833 269.273 12.4433 269.093 12.13C268.913 11.81 268.823 11.4333 268.823 11V9.5C268.823 9.06 268.913 8.68333 269.093 8.37C269.273 8.05667 269.526 7.81667 269.853 7.65C270.186 7.48333 270.573 7.4 271.013 7.4C271.646 7.4 272.156 7.57 272.543 7.91C272.929 8.25 273.133 8.71333 273.153 9.3H272.253C272.233 8.94667 272.113 8.67667 271.893 8.49C271.679 8.29667 271.386 8.2 271.013 8.2C270.619 8.2 270.306 8.31333 270.073 8.54C269.839 8.76 269.723 9.07667 269.723 9.49V11C269.723 11.4133 269.839 11.7333 270.073 11.96C270.306 12.1867 270.619 12.3 271.013 12.3C271.386 12.3 271.679 12.2033 271.893 12.01C272.113 11.8167 272.233 11.5467 272.253 11.2H273.153C273.133 11.7867 272.929 12.25 272.543 12.59C272.156 12.93 271.646 13.1 271.013 13.1Z" fill="#2D2A2A"/>
<path d="M277.569 13C277.095 13 276.725 12.8733 276.459 12.62C276.199 12.3667 276.069 12.01 276.069 11.55V8.32H274.519V7.5H276.069V5.95H276.969V7.5H279.169V8.32H276.969V11.55C276.969 11.97 277.169 12.18 277.569 12.18H279.069V13H277.569Z" fill="#2D2A2A"/>
<path d="M280.815 13V12.18H282.765V8.32H281.065V7.5H283.665V12.18H285.515V13H280.815ZM283.115 6.51C282.895 6.51 282.722 6.45333 282.595 6.34C282.468 6.22667 282.405 6.07333 282.405 5.88C282.405 5.68 282.468 5.52333 282.595 5.41C282.722 5.29 282.895 5.23 283.115 5.23C283.335 5.23 283.508 5.29 283.635 5.41C283.762 5.52333 283.825 5.68 283.825 5.88C283.825 6.07333 283.762 6.22667 283.635 6.34C283.508 6.45333 283.335 6.51 283.115 6.51Z" fill="#2D2A2A"/>
<path d="M288.961 13.08C288.521 13.08 288.141 12.9967 287.821 12.83C287.501 12.6633 287.251 12.4233 287.071 12.11C286.898 11.79 286.811 11.4133 286.811 10.98V9.52C286.811 9.08 286.898 8.70333 287.071 8.39C287.251 8.07667 287.501 7.83667 287.821 7.67C288.141 7.50333 288.521 7.42 288.961 7.42C289.401 7.42 289.781 7.50333 290.101 7.67C290.421 7.83667 290.668 8.07667 290.841 8.39C291.021 8.70333 291.111 9.07667 291.111 9.51V10.98C291.111 11.4133 291.021 11.79 290.841 12.11C290.668 12.4233 290.421 12.6633 290.101 12.83C289.781 12.9967 289.401 13.08 288.961 13.08ZM288.961 12.28C289.354 12.28 289.661 12.17 289.881 11.95C290.101 11.73 290.211 11.4067 290.211 10.98V9.52C290.211 9.09333 290.101 8.77 289.881 8.55C289.661 8.33 289.354 8.22 288.961 8.22C288.574 8.22 288.268 8.33 288.041 8.55C287.821 8.77 287.711 9.09333 287.711 9.52V10.98C287.711 11.4067 287.821 11.73 288.041 11.95C288.268 12.17 288.574 12.28 288.961 12.28Z" fill="#2D2A2A"/>
<path d="M292.877 13V7.5H293.777V8.55H293.967L293.777 8.76C293.777 8.32667 293.907 7.99333 294.167 7.76C294.427 7.52 294.787 7.4 295.247 7.4C295.8 7.4 296.24 7.57 296.567 7.91C296.894 8.25 297.057 8.71333 297.057 9.3V13H296.157V9.4C296.157 9.00667 296.05 8.70667 295.837 8.5C295.63 8.28667 295.347 8.18 294.987 8.18C294.614 8.18 294.317 8.29333 294.097 8.52C293.884 8.74667 293.777 9.07333 293.777 9.5V13H292.877Z" fill="#2D2A2A"/>
<path d="M300.783 13.08C300.41 13.08 300.083 13.0233 299.803 12.91C299.53 12.79 299.31 12.6233 299.143 12.41C298.983 12.1967 298.886 11.9433 298.853 11.65H299.753C299.793 11.8433 299.9 11.9967 300.073 12.11C300.253 12.2233 300.49 12.28 300.783 12.28H301.203C301.556 12.28 301.82 12.21 301.993 12.07C302.166 11.9233 302.253 11.73 302.253 11.49C302.253 11.2567 302.173 11.0733 302.013 10.94C301.86 10.8 301.63 10.7067 301.323 10.66L300.583 10.54C300.043 10.4467 299.64 10.28 299.373 10.04C299.113 9.79333 298.983 9.43667 298.983 8.97C298.983 8.47667 299.14 8.09667 299.453 7.83C299.766 7.55667 300.236 7.42 300.863 7.42H301.243C301.77 7.42 302.193 7.54333 302.513 7.79C302.833 8.03667 303.026 8.37 303.093 8.79H302.193C302.153 8.61667 302.053 8.48 301.893 8.38C301.733 8.27333 301.516 8.22 301.243 8.22H300.863C300.523 8.22 300.273 8.28333 300.113 8.41C299.96 8.53667 299.883 8.72667 299.883 8.98C299.883 9.20667 299.95 9.37333 300.083 9.48C300.216 9.58667 300.426 9.66333 300.713 9.71L301.453 9.83C302.046 9.92333 302.476 10.0967 302.743 10.35C303.016 10.6033 303.153 10.97 303.153 11.45C303.153 11.9567 302.99 12.3567 302.663 12.65C302.343 12.9367 301.856 13.08 301.203 13.08H300.783Z" fill="#2D2A2A"/>
<path d="M27.204 72L32.412 51.56H36.388L41.596 72H38.544L37.312 66.82H31.516L30.284 72H27.204ZM32.076 64.328H36.724L35.324 58.42C35.0813 57.3747 34.876 56.4693 34.708 55.704C34.5587 54.92 34.456 54.388 34.4 54.108C34.344 54.388 34.2413 54.92 34.092 55.704C33.9427 56.4693 33.7373 57.3653 33.476 58.392L32.076 64.328Z" fill="#2D2A2A"/>
<path d="M52.2811 72.28C51.0117 72.28 50.0037 71.9347 49.2571 71.244C48.5104 70.5347 48.1371 69.5733 48.1371 68.36L48.7811 69.06H48.1371V72H45.1411V51.56H48.1651V55.956L48.0811 59.54H48.7811L48.1371 60.24C48.1371 59.0267 48.5104 58.0747 49.2571 57.384C50.0224 56.6747 51.0304 56.32 52.2811 56.32C53.8304 56.32 55.0717 56.8427 56.0051 57.888C56.9384 58.9333 57.4051 60.352 57.4051 62.144V66.484C57.4051 68.2573 56.9384 69.6667 56.0051 70.712C55.0717 71.7573 53.8304 72.28 52.2811 72.28ZM51.2451 69.648C52.2344 69.648 53.0091 69.368 53.5691 68.808C54.1291 68.2293 54.4091 67.3987 54.4091 66.316V62.284C54.4091 61.2013 54.1291 60.38 53.5691 59.82C53.0091 59.2413 52.2344 58.952 51.2451 58.952C50.2931 58.952 49.5371 59.2507 48.9771 59.848C48.4357 60.4267 48.1651 61.2387 48.1651 62.284V66.316C48.1651 67.3613 48.4357 68.1827 48.9771 68.78C49.5371 69.3587 50.2931 69.648 51.2451 69.648Z" fill="#2D2A2A"/>
<path d="M67.9781 72.252C66.7088 72.252 65.6075 72.0093 64.6741 71.524C63.7408 71.0387 63.0221 70.348 62.5181 69.452C62.0141 68.556 61.7621 67.5013 61.7621 66.288V62.312C61.7621 61.08 62.0141 60.0253 62.5181 59.148C63.0221 58.252 63.7408 57.5613 64.6741 57.076C65.6075 56.5907 66.7088 56.348 67.9781 56.348C69.2475 56.348 70.3488 56.5907 71.2821 57.076C72.2155 57.5613 72.9341 58.252 73.4381 59.148C73.9421 60.0253 74.1941 61.08 74.1941 62.312V66.288C74.1941 67.5013 73.9421 68.556 73.4381 69.452C72.9341 70.348 72.2155 71.0387 71.2821 71.524C70.3488 72.0093 69.2475 72.252 67.9781 72.252ZM67.9781 69.592C69.0048 69.592 69.7981 69.312 70.3581 68.752C70.9181 68.1733 71.1981 67.352 71.1981 66.288V62.312C71.1981 61.2293 70.9181 60.408 70.3581 59.848C69.7981 59.288 69.0048 59.008 67.9781 59.008C66.9701 59.008 66.1768 59.288 65.5981 59.848C65.0381 60.408 64.7581 61.2293 64.7581 62.312V66.288C64.7581 67.352 65.0381 68.1733 65.5981 68.752C66.1768 69.312 66.9701 69.592 67.9781 69.592Z" fill="#2D2A2A"/>
<path d="M84.7392 72.28C82.8912 72.28 81.4165 71.748 80.3152 70.684C79.2139 69.6013 78.6632 68.136 78.6632 66.288V56.6H81.6872V66.288C81.6872 67.352 81.9579 68.1827 82.4992 68.78C83.0405 69.3587 83.7872 69.648 84.7392 69.648C85.7099 69.648 86.4659 69.3587 87.0072 68.78C87.5672 68.1827 87.8472 67.352 87.8472 66.288V56.6H90.8712V66.288C90.8712 68.136 90.3112 69.6013 89.1912 70.684C88.0899 71.748 86.6059 72.28 84.7392 72.28Z" fill="#2D2A2A"/>
<path d="M103.236 72C101.836 72 100.744 71.6173 99.9603 70.852C99.1763 70.0867 98.7842 69.0227 98.7842 67.66V59.344H94.5283V56.6H98.7842V52.26H101.808V56.6H107.828V59.344H101.808V67.66C101.808 68.724 102.322 69.256 103.348 69.256H107.548V72H103.236Z" fill="#2D2A2A"/>
<path d="M128.386 72V56.6H130.906V58.56H131.466L131.046 59.148C131.046 58.2893 131.28 57.608 131.746 57.104C132.213 56.5813 132.838 56.32 133.622 56.32C134.462 56.32 135.106 56.6467 135.554 57.3C136.021 57.9533 136.254 58.8493 136.254 59.988L135.582 58.56H136.646L136.198 59.148C136.198 58.2893 136.432 57.608 136.898 57.104C137.384 56.5813 138.028 56.32 138.83 56.32C139.782 56.32 140.529 56.684 141.07 57.412C141.612 58.1213 141.882 59.0733 141.882 60.268V72H139.194V60.352C139.194 59.7733 139.064 59.3253 138.802 59.008C138.56 58.6907 138.205 58.532 137.738 58.532C137.272 58.532 136.908 58.6907 136.646 59.008C136.404 59.3067 136.282 59.7453 136.282 60.324V72H134.014V60.352C134.014 59.7547 133.884 59.3067 133.622 59.008C133.361 58.6907 132.988 58.532 132.502 58.532C132.036 58.532 131.681 58.6907 131.438 59.008C131.214 59.3067 131.102 59.7453 131.102 60.324V72H128.386Z" fill="#2D2A2A"/>
<path d="M151.923 72.28C150.673 72.28 149.571 72.0373 148.619 71.552C147.686 71.048 146.967 70.348 146.463 69.452C145.959 68.556 145.707 67.5107 145.707 66.316V62.284C145.707 61.0707 145.959 60.0253 146.463 59.148C146.967 58.252 147.686 57.5613 148.619 57.076C149.571 56.572 150.673 56.32 151.923 56.32C153.193 56.32 154.294 56.572 155.227 57.076C156.161 57.5613 156.879 58.252 157.383 59.148C157.887 60.0253 158.139 61.0707 158.139 62.284V65.028H148.619V66.316C148.619 67.4547 148.899 68.3227 149.459 68.92C150.038 69.5173 150.869 69.816 151.951 69.816C152.829 69.816 153.538 69.6667 154.079 69.368C154.621 69.0507 154.957 68.5933 155.087 67.996H158.083C157.859 69.3027 157.187 70.348 156.067 71.132C154.947 71.8973 153.566 72.28 151.923 72.28ZM155.227 63.208V62.256C155.227 61.136 154.947 60.268 154.387 59.652C153.827 59.036 153.006 58.728 151.923 58.728C150.859 58.728 150.038 59.036 149.459 59.652C148.899 60.268 148.619 61.1453 148.619 62.284V62.984L155.451 62.956L155.227 63.208Z" fill="#2D2A2A"/>
<path d="M197 51.9467C197 47.0134 192.963 43 188 43C183.037 43 179 47.0134 179 51.9467C179 55.5731 181.183 58.7001 184.31 60.1037L186.93 73.1293C187.032 73.6356 187.48 74 188 74C188.52 74 188.968 73.6355 189.07 73.1294L191.69 60.1037C194.817 58.7 197 55.5731 197 51.9467ZM188 67.3869L186.674 60.7956C187.107 60.8594 187.55 60.8935 188 60.8935C188.45 60.8935 188.893 60.8595 189.326 60.7956L188 67.3869ZM188 58.7281C184.24 58.7281 181.182 55.6859 181.182 51.9465C181.182 48.2071 184.24 45.165 188 45.165C191.76 45.165 194.818 48.2071 194.818 51.9465C194.818 55.6859 191.76 58.7281 188 58.7281Z" fill="#2D2A2A"/>
<path d="M206.18 76V61.4H208.34V74.02H214.72V76H206.18Z" fill="#2D2A2A"/>
<path d="M220.892 76.2C219.746 76.2 218.839 75.9067 218.172 75.32C217.519 74.72 217.192 73.9067 217.192 72.88C217.192 71.84 217.539 71.0267 218.232 70.44C218.939 69.84 219.906 69.54 221.132 69.54H224.192V68.52C224.192 67.92 224.006 67.4533 223.632 67.12C223.259 66.7867 222.732 66.62 222.052 66.62C221.452 66.62 220.952 66.7533 220.552 67.02C220.152 67.2733 219.919 67.6133 219.852 68.04H217.732C217.852 67.0533 218.306 66.2667 219.092 65.68C219.892 65.0933 220.899 64.8 222.112 64.8C223.419 64.8 224.452 65.1333 225.212 65.8C225.972 66.4533 226.352 67.3467 226.352 68.48V76H224.252V73.98H223.892L224.252 73.58C224.252 74.38 223.946 75.02 223.332 75.5C222.719 75.9667 221.906 76.2 220.892 76.2ZM221.532 74.54C222.306 74.54 222.939 74.3467 223.432 73.96C223.939 73.56 224.192 73.0533 224.192 72.44V71H221.172C220.612 71 220.166 71.1533 219.832 71.46C219.512 71.7667 219.352 72.1867 219.352 72.72C219.352 73.28 219.546 73.7267 219.932 74.06C220.319 74.38 220.852 74.54 221.532 74.54Z" fill="#2D2A2A"/>
<path d="M229.724 76V61.4H231.884V69.42H233.824L236.744 65H239.184L235.684 70.28L239.244 76H236.764L233.824 71.28H231.884V76H229.724Z" fill="#2D2A2A"/>
<path d="M245.977 76.2C245.083 76.2 244.297 76.0267 243.617 75.68C242.95 75.32 242.437 74.82 242.077 74.18C241.717 73.54 241.537 72.7933 241.537 71.94V69.06C241.537 68.1933 241.717 67.4467 242.077 66.82C242.437 66.18 242.95 65.6867 243.617 65.34C244.297 64.98 245.083 64.8 245.977 64.8C246.883 64.8 247.67 64.98 248.337 65.34C249.003 65.6867 249.517 66.18 249.877 66.82C250.237 67.4467 250.417 68.1933 250.417 69.06V71.02H243.617V71.94C243.617 72.7533 243.817 73.3733 244.217 73.8C244.63 74.2267 245.223 74.44 245.997 74.44C246.623 74.44 247.13 74.3333 247.517 74.12C247.903 73.8933 248.143 73.5667 248.237 73.14H250.377C250.217 74.0733 249.737 74.82 248.937 75.38C248.137 75.9267 247.15 76.2 245.977 76.2ZM248.337 69.72V69.04C248.337 68.24 248.137 67.62 247.737 67.18C247.337 66.74 246.75 66.52 245.977 66.52C245.217 66.52 244.63 66.74 244.217 67.18C243.817 67.62 243.617 68.2467 243.617 69.06V69.56L248.497 69.54L248.337 69.72Z" fill="#2D2A2A"/>
<path d="M256.549 76L252.909 65H255.109L257.369 72.04C257.515 72.4533 257.642 72.8733 257.749 73.3C257.869 73.7133 257.955 74.04 258.009 74.28C258.075 74.04 258.162 73.7133 258.269 73.3C258.389 72.8733 258.509 72.4533 258.629 72.04L260.849 65H263.029L259.389 76H256.549Z" fill="#2D2A2A"/>
<path d="M265.581 76V74.04H269.441V66.96H266.081V65H271.541V74.04H275.081V76H265.581ZM270.281 63.1C269.814 63.1 269.441 62.98 269.161 62.74C268.881 62.4867 268.741 62.1533 268.741 61.74C268.741 61.3133 268.881 60.98 269.161 60.74C269.441 60.4867 269.814 60.36 270.281 60.36C270.748 60.36 271.121 60.4867 271.401 60.74C271.681 60.98 271.821 61.3133 271.821 61.74C271.821 62.1533 271.681 62.4867 271.401 62.74C271.121 62.98 270.748 63.1 270.281 63.1Z" fill="#2D2A2A"/>
<path d="M283.533 76C282.853 76 282.26 75.8667 281.753 75.6C281.246 75.32 280.846 74.9267 280.553 74.42C280.273 73.9133 280.133 73.3267 280.133 72.66V63.36H276.533V61.4H282.293V72.66C282.293 73.0867 282.413 73.4267 282.653 73.68C282.893 73.92 283.22 74.04 283.633 74.04H287.033V76H283.533Z" fill="#2D2A2A"/>
<path d="M295.525 76C294.845 76 294.252 75.8667 293.745 75.6C293.239 75.32 292.839 74.9267 292.545 74.42C292.265 73.9133 292.125 73.3267 292.125 72.66V63.36H288.525V61.4H294.285V72.66C294.285 73.0867 294.405 73.4267 294.645 73.68C294.885 73.92 295.212 74.04 295.625 74.04H299.025V76H295.525Z" fill="#2D2A2A"/>
<path d="M305.938 76.2C305.044 76.2 304.258 76.0267 303.578 75.68C302.911 75.32 302.398 74.82 302.038 74.18C301.678 73.54 301.497 72.7933 301.497 71.94V69.06C301.497 68.1933 301.678 67.4467 302.038 66.82C302.398 66.18 302.911 65.6867 303.578 65.34C304.258 64.98 305.044 64.8 305.938 64.8C306.844 64.8 307.631 64.98 308.297 65.34C308.964 65.6867 309.477 66.18 309.837 66.82C310.197 67.4467 310.378 68.1933 310.378 69.06V71.02H303.578V71.94C303.578 72.7533 303.777 73.3733 304.177 73.8C304.591 74.2267 305.184 74.44 305.957 74.44C306.584 74.44 307.091 74.3333 307.478 74.12C307.864 73.8933 308.104 73.5667 308.198 73.14H310.337C310.177 74.0733 309.697 74.82 308.897 75.38C308.097 75.9267 307.111 76.2 305.938 76.2ZM308.297 69.72V69.04C308.297 68.24 308.098 67.62 307.698 67.18C307.298 66.74 306.711 66.52 305.938 66.52C305.178 66.52 304.591 66.74 304.177 67.18C303.777 67.62 303.578 68.2467 303.578 69.06V69.56L308.457 69.54L308.297 69.72Z" fill="#2D2A2A"/>
<path d="M315.09 79.2L316.69 72.98H319.57L316.97 79.2H315.09Z" fill="#2D2A2A"/>
<path d="M337.234 76V61.4H339.894L341.354 66.08C341.501 66.52 341.627 66.9467 341.734 67.36C341.841 67.76 341.914 68.06 341.954 68.26C342.007 68.06 342.081 67.76 342.174 67.36C342.281 66.9467 342.401 66.52 342.534 66.08L343.934 61.4H346.594V76H344.554V71.08C344.554 70.4533 344.567 69.76 344.594 69C344.634 68.2267 344.687 67.4533 344.754 66.68C344.821 65.8933 344.887 65.1467 344.954 64.44C345.021 63.72 345.081 63.0933 345.134 62.56L342.974 69.66H340.894L338.694 62.56C338.761 63.08 338.827 63.6867 338.894 64.38C338.961 65.06 339.021 65.7867 339.074 66.56C339.127 67.3333 339.174 68.1133 339.214 68.9C339.254 69.6733 339.274 70.4 339.274 71.08V76H337.234Z" fill="#2D2A2A"/>
<path d="M349.526 76V74.04H353.386V66.96H350.026V65H355.486V74.04H359.026V76H349.526ZM354.226 63.1C353.76 63.1 353.386 62.98 353.106 62.74C352.826 62.4867 352.686 62.1533 352.686 61.74C352.686 61.3133 352.826 60.98 353.106 60.74C353.386 60.4867 353.76 60.36 354.226 60.36C354.693 60.36 355.066 60.4867 355.346 60.74C355.626 60.98 355.766 61.3133 355.766 61.74C355.766 62.1533 355.626 62.4867 355.346 62.74C355.066 62.98 354.693 63.1 354.226 63.1Z" fill="#2D2A2A"/>
<path d="M361.578 76V65H363.718V67.1H364.238L363.718 67.6C363.718 66.72 363.978 66.0333 364.498 65.54C365.018 65.0467 365.738 64.8 366.658 64.8C367.752 64.8 368.625 65.1533 369.278 65.86C369.932 66.5533 370.258 67.4933 370.258 68.68V76H368.098V68.92C368.098 68.2 367.905 67.6467 367.518 67.26C367.132 66.8733 366.605 66.68 365.938 66.68C365.258 66.68 364.718 66.8867 364.318 67.3C363.932 67.7 363.738 68.2867 363.738 69.06V76H361.578Z" fill="#2D2A2A"/>
<path d="M373.571 76V65H375.711V67.1H376.231L375.711 67.6C375.711 66.72 375.971 66.0333 376.491 65.54C377.011 65.0467 377.731 64.8 378.651 64.8C379.744 64.8 380.617 65.1533 381.271 65.86C381.924 66.5533 382.251 67.4933 382.251 68.68V76H380.091V68.92C380.091 68.2 379.897 67.6467 379.511 67.26C379.124 66.8733 378.597 66.68 377.931 66.68C377.251 66.68 376.711 66.8867 376.311 67.3C375.924 67.7 375.731 68.2867 375.731 69.06V76H373.571Z" fill="#2D2A2A"/>
<path d="M389.883 76.2C388.989 76.2 388.203 76.0267 387.523 75.68C386.856 75.32 386.343 74.82 385.983 74.18C385.623 73.54 385.443 72.7933 385.443 71.94V69.06C385.443 68.1933 385.623 67.4467 385.983 66.82C386.343 66.18 386.856 65.6867 387.523 65.34C388.203 64.98 388.989 64.8 389.883 64.8C390.789 64.8 391.576 64.98 392.243 65.34C392.909 65.6867 393.423 66.18 393.783 66.82C394.143 67.4467 394.323 68.1933 394.323 69.06V71.02H387.523V71.94C387.523 72.7533 387.723 73.3733 388.123 73.8C388.536 74.2267 389.129 74.44 389.903 74.44C390.529 74.44 391.036 74.3333 391.423 74.12C391.809 73.8933 392.049 73.5667 392.143 73.14H394.283C394.123 74.0733 393.643 74.82 392.843 75.38C392.043 75.9267 391.056 76.2 389.883 76.2ZM392.243 69.72V69.04C392.243 68.24 392.043 67.62 391.643 67.18C391.243 66.74 390.656 66.52 389.883 66.52C389.123 66.52 388.536 66.74 388.123 67.18C387.723 67.62 387.523 68.2467 387.523 69.06V69.56L392.403 69.54L392.243 69.72Z" fill="#2D2A2A"/>
<path d="M401.495 76.18C400.708 76.18 400.015 76.0533 399.415 75.8C398.828 75.5467 398.362 75.2 398.015 74.76C397.682 74.3067 397.488 73.7733 397.435 73.16H399.595C399.648 73.52 399.842 73.8133 400.175 74.04C400.508 74.2533 400.948 74.36 401.495 74.36H402.355C403.008 74.36 403.502 74.2267 403.835 73.96C404.168 73.6933 404.335 73.34 404.335 72.9C404.335 72.4733 404.182 72.14 403.875 71.9C403.582 71.6467 403.142 71.48 402.555 71.4L401.135 71.18C399.962 70.9933 399.095 70.66 398.535 70.18C397.988 69.6867 397.715 68.96 397.715 68C397.715 66.9867 398.042 66.2067 398.695 65.66C399.362 65.1 400.342 64.82 401.635 64.82H402.395C403.542 64.82 404.455 65.0867 405.135 65.62C405.828 66.14 406.222 66.84 406.315 67.72H404.155C404.102 67.4 403.922 67.14 403.615 66.94C403.322 66.74 402.915 66.64 402.395 66.64H401.635C401.008 66.64 400.548 66.76 400.255 67C399.975 67.2267 399.835 67.5667 399.835 68.02C399.835 68.42 399.962 68.72 400.215 68.92C400.468 69.12 400.862 69.26 401.395 69.34L402.855 69.58C404.095 69.7533 405.002 70.1 405.575 70.62C406.162 71.1267 406.455 71.8667 406.455 72.84C406.455 73.8933 406.108 74.7133 405.415 75.3C404.735 75.8867 403.715 76.18 402.355 76.18H401.495Z" fill="#2D2A2A"/>
<path d="M413.867 76.18C412.961 76.18 412.174 76.0067 411.507 75.66C410.841 75.3133 410.327 74.82 409.967 74.18C409.607 73.54 409.427 72.7867 409.427 71.92V69.08C409.427 68.2 409.607 67.4467 409.967 66.82C410.327 66.18 410.841 65.6867 411.507 65.34C412.174 64.9933 412.961 64.82 413.867 64.82C414.774 64.82 415.561 64.9933 416.227 65.34C416.894 65.6867 417.407 66.18 417.767 66.82C418.127 67.4467 418.307 68.2 418.307 69.08V71.92C418.307 72.7867 418.127 73.54 417.767 74.18C417.407 74.82 416.894 75.3133 416.227 75.66C415.561 76.0067 414.774 76.18 413.867 76.18ZM413.867 74.28C414.601 74.28 415.167 74.08 415.567 73.68C415.967 73.2667 416.167 72.68 416.167 71.92V69.08C416.167 68.3067 415.967 67.72 415.567 67.32C415.167 66.92 414.601 66.72 413.867 66.72C413.147 66.72 412.581 66.92 412.167 67.32C411.767 67.72 411.567 68.3067 411.567 69.08V71.92C411.567 72.68 411.767 73.2667 412.167 73.68C412.581 74.08 413.147 74.28 413.867 74.28Z" fill="#2D2A2A"/>
<path d="M427.059 76C426.059 76 425.279 75.7267 424.719 75.18C424.159 74.6333 423.879 73.8733 423.879 72.9V66.96H420.839V65H423.879V61.9H426.039V65H430.339V66.96H426.039V72.9C426.039 73.66 426.406 74.04 427.139 74.04H430.139V76H427.059Z" fill="#2D2A2A"/>
<path d="M436.752 76.2C435.605 76.2 434.698 75.9067 434.032 75.32C433.378 74.72 433.052 73.9067 433.052 72.88C433.052 71.84 433.398 71.0267 434.092 70.44C434.798 69.84 435.765 69.54 436.992 69.54H440.052V68.52C440.052 67.92 439.865 67.4533 439.492 67.12C439.118 66.7867 438.592 66.62 437.912 66.62C437.312 66.62 436.812 66.7533 436.412 67.02C436.012 67.2733 435.778 67.6133 435.712 68.04H433.592C433.712 67.0533 434.165 66.2667 434.952 65.68C435.752 65.0933 436.758 64.8 437.972 64.8C439.278 64.8 440.312 65.1333 441.072 65.8C441.832 66.4533 442.212 67.3467 442.212 68.48V76H440.112V73.98H439.752L440.112 73.58C440.112 74.38 439.805 75.02 439.192 75.5C438.578 75.9667 437.765 76.2 436.752 76.2ZM437.392 74.54C438.165 74.54 438.798 74.3467 439.292 73.96C439.798 73.56 440.052 73.0533 440.052 72.44V71H437.032C436.472 71 436.025 71.1533 435.692 71.46C435.372 71.7667 435.212 72.1867 435.212 72.72C435.212 73.28 435.405 73.7267 435.792 74.06C436.178 74.38 436.712 74.54 437.392 74.54Z" fill="#2D2A2A"/>
<path d="M32.604 137V116.56H35.124V125.296H41.676V116.56H44.196V137H41.676V127.592H35.124V137H32.604Z" fill="#2D2A2A"/>
<path d="M55.1891 137.28C53.9757 137.28 52.9117 137.037 51.9971 136.552C51.1011 136.067 50.4011 135.385 49.8971 134.508C49.4117 133.612 49.1691 132.576 49.1691 131.4V127.2C49.1691 126.005 49.4117 124.969 49.8971 124.092C50.4011 123.215 51.1011 122.533 51.9971 122.048C52.9117 121.563 53.9757 121.32 55.1891 121.32C56.4024 121.32 57.4571 121.563 58.3531 122.048C59.2677 122.533 59.9677 123.215 60.4531 124.092C60.9571 124.969 61.2091 126.005 61.2091 127.2V129.916H51.6331V131.4C51.6331 132.613 51.9411 133.547 52.5571 134.2C53.1731 134.835 54.0504 135.152 55.1891 135.152C56.1597 135.152 56.9437 134.984 57.5411 134.648C58.1384 134.293 58.5024 133.771 58.6331 133.08H61.1531C60.9851 134.368 60.3504 135.395 59.2491 136.16C58.1664 136.907 56.8131 137.28 55.1891 137.28ZM58.7451 128.236V127.2C58.7451 125.987 58.4371 125.053 57.8211 124.4C57.2237 123.747 56.3464 123.42 55.1891 123.42C54.0504 123.42 53.1731 123.747 52.5571 124.4C51.9411 125.053 51.6331 125.987 51.6331 127.2V128.012H58.9411L58.7451 128.236Z" fill="#2D2A2A"/>
<path d="M68.5621 142.04L70.8301 136.048L65.1181 121.6H67.9181L71.5021 131.12C71.6328 131.437 71.7541 131.82 71.8661 132.268C71.9781 132.697 72.0715 133.061 72.1461 133.36C72.2208 133.061 72.3141 132.697 72.4261 132.268C72.5381 131.82 72.6501 131.437 72.7621 131.12L76.1221 121.6H78.8381L71.2501 142.04H68.5621Z" fill="#2D2A2A"/>
<path d="M87.8712 130.98L87.2832 119.92V116.56H90.2512V119.92L89.6632 130.98H87.8712ZM88.3472 137.14C87.8619 137.14 87.4605 136.981 87.1432 136.664C86.8259 136.347 86.6672 135.945 86.6672 135.46C86.6672 134.975 86.8259 134.573 87.1432 134.256C87.4605 133.939 87.8619 133.78 88.3472 133.78H89.1872C89.7285 133.78 90.1392 133.939 90.4192 134.256C90.7179 134.555 90.8672 134.947 90.8672 135.432C90.8672 135.917 90.7085 136.328 90.3912 136.664C90.0739 136.981 89.6725 137.14 89.1872 137.14H88.3472Z" fill="#2D2A2A"/>
<path d="M32.128 211V190.56H35.432L37.56 197.168C37.7653 197.765 37.952 198.363 38.12 198.96C38.288 199.539 38.4093 199.987 38.484 200.304C38.5773 199.987 38.6987 199.539 38.848 198.96C38.9973 198.363 39.1653 197.756 39.352 197.14L41.368 190.56H44.672V211H42.208V203.58C42.208 202.759 42.236 201.825 42.292 200.78C42.348 199.735 42.4227 198.671 42.516 197.588C42.6093 196.487 42.7027 195.441 42.796 194.452C42.908 193.444 43.0013 192.567 43.076 191.82L39.772 202.04H37.112L33.78 191.82C33.8733 192.548 33.9667 193.397 34.06 194.368C34.1533 195.32 34.2373 196.337 34.312 197.42C34.3867 198.484 34.452 199.548 34.508 200.612C34.564 201.676 34.592 202.665 34.592 203.58V211H32.128Z" fill="#2D2A2A"/>
<path d="M51.7731 216.04L54.0411 210.048L48.3291 195.6H51.1291L54.7131 205.12C54.8437 205.437 54.9651 205.82 55.0771 206.268C55.1891 206.697 55.2824 207.061 55.3571 207.36C55.4317 207.061 55.5251 206.697 55.6371 206.268C55.7491 205.82 55.8611 205.437 55.9731 205.12L59.3331 195.6H62.0491L54.4611 216.04H51.7731Z" fill="#2D2A2A"/>
<path d="M82.9432 211V195.6H85.4632V198.54H85.9952L85.4632 199.128C85.4632 197.915 85.8272 196.981 86.5552 196.328C87.2832 195.656 88.2912 195.32 89.5792 195.32C91.1285 195.32 92.3605 195.796 93.2752 196.748C94.1899 197.7 94.6472 198.997 94.6472 200.64V211H92.1272V200.92C92.1272 199.819 91.8285 198.979 91.2312 198.4C90.6525 197.803 89.8592 197.504 88.8512 197.504C87.8059 197.504 86.9752 197.821 86.3592 198.456C85.7619 199.091 85.4632 200.005 85.4632 201.2V211H82.9432Z" fill="#2D2A2A"/>
<path d="M104.212 211.28C102.588 211.28 101.31 210.869 100.376 210.048C99.4429 209.208 98.9762 208.079 98.9762 206.66C98.9762 205.223 99.4429 204.093 100.376 203.272C101.31 202.451 102.57 202.04 104.156 202.04H108.916V200.5C108.916 199.548 108.627 198.82 108.048 198.316C107.488 197.793 106.686 197.532 105.64 197.532C104.726 197.532 103.96 197.728 103.344 198.12C102.728 198.493 102.374 199.007 102.28 199.66H99.7602C99.9282 198.335 100.554 197.28 101.636 196.496C102.719 195.712 104.072 195.32 105.696 195.32C107.47 195.32 108.87 195.777 109.896 196.692C110.923 197.607 111.436 198.848 111.436 200.416V211H108.972V208.06H108.552L108.972 207.64C108.972 208.76 108.534 209.647 107.656 210.3C106.798 210.953 105.65 211.28 104.212 211.28ZM104.828 209.292C106.023 209.292 107.003 208.993 107.768 208.396C108.534 207.799 108.916 207.033 108.916 206.1V203.916H104.212C103.372 203.916 102.71 204.149 102.224 204.616C101.739 205.083 101.496 205.717 101.496 206.52C101.496 207.379 101.786 208.06 102.364 208.564C102.962 209.049 103.783 209.292 104.828 209.292Z" fill="#2D2A2A"/>
<path d="M115.793 211V195.6H118.005V197.448H118.509L118.117 198.12C118.117 197.261 118.341 196.58 118.789 196.076C119.256 195.572 119.881 195.32 120.665 195.32C121.524 195.32 122.187 195.637 122.653 196.272C123.12 196.907 123.353 197.803 123.353 198.96L122.597 197.448H123.773L123.241 198.12C123.241 197.261 123.475 196.58 123.941 196.076C124.427 195.572 125.061 195.32 125.845 195.32C126.816 195.32 127.563 195.684 128.085 196.412C128.627 197.14 128.897 198.101 128.897 199.296V211H126.573V199.268C126.573 198.633 126.433 198.139 126.153 197.784C125.892 197.429 125.5 197.252 124.977 197.252C124.473 197.252 124.072 197.429 123.773 197.784C123.493 198.12 123.353 198.605 123.353 199.24V211H121.337V199.268C121.337 198.615 121.188 198.12 120.889 197.784C120.609 197.429 120.208 197.252 119.685 197.252C119.163 197.252 118.771 197.429 118.509 197.784C118.248 198.12 118.117 198.605 118.117 199.24V211H115.793Z" fill="#2D2A2A"/>
<path d="M139.134 211.28C137.921 211.28 136.857 211.037 135.942 210.552C135.046 210.067 134.346 209.385 133.842 208.508C133.357 207.612 133.114 206.576 133.114 205.4V201.2C133.114 200.005 133.357 198.969 133.842 198.092C134.346 197.215 135.046 196.533 135.942 196.048C136.857 195.563 137.921 195.32 139.134 195.32C140.348 195.32 141.402 195.563 142.298 196.048C143.213 196.533 143.913 197.215 144.398 198.092C144.902 198.969 145.154 200.005 145.154 201.2V203.916H135.578V205.4C135.578 206.613 135.886 207.547 136.502 208.2C137.118 208.835 137.996 209.152 139.134 209.152C140.105 209.152 140.889 208.984 141.486 208.648C142.084 208.293 142.448 207.771 142.578 207.08H145.098C144.93 208.368 144.296 209.395 143.194 210.16C142.112 210.907 140.758 211.28 139.134 211.28ZM142.69 202.236V201.2C142.69 199.987 142.382 199.053 141.766 198.4C141.169 197.747 140.292 197.42 139.134 197.42C137.996 197.42 137.118 197.747 136.502 198.4C135.886 199.053 135.578 199.987 135.578 201.2V202.012H142.886L142.69 202.236Z" fill="#2D2A2A"/>
<path d="M166.693 211V208.704H172.152V197.896H167.393V195.6H174.673V208.704H179.852V211H166.693ZM173.133 192.828C172.517 192.828 172.031 192.669 171.676 192.352C171.322 192.035 171.145 191.605 171.145 191.064C171.145 190.504 171.322 190.065 171.676 189.748C172.031 189.412 172.517 189.244 173.133 189.244C173.749 189.244 174.234 189.412 174.589 189.748C174.943 190.065 175.12 190.504 175.12 191.064C175.12 191.605 174.943 192.035 174.589 192.352C174.234 192.669 173.749 192.828 173.133 192.828Z" fill="#2D2A2A"/>
<path d="M189.026 211.224C187.98 211.224 187.066 211.065 186.282 210.748C185.516 210.412 184.9 209.945 184.434 209.348C183.986 208.751 183.715 208.041 183.622 207.22H186.142C186.254 207.761 186.552 208.191 187.038 208.508C187.542 208.825 188.204 208.984 189.026 208.984H190.202C191.191 208.984 191.928 208.788 192.414 208.396C192.899 207.985 193.142 207.444 193.142 206.772C193.142 206.119 192.918 205.605 192.47 205.232C192.04 204.84 191.396 204.579 190.538 204.448L188.466 204.112C186.954 203.851 185.824 203.384 185.078 202.712C184.35 202.021 183.986 201.023 183.986 199.716C183.986 198.335 184.424 197.271 185.302 196.524C186.179 195.759 187.495 195.376 189.25 195.376H190.314C191.788 195.376 192.974 195.721 193.87 196.412C194.766 197.103 195.307 198.036 195.494 199.212H192.974C192.862 198.727 192.582 198.344 192.134 198.064C191.686 197.765 191.079 197.616 190.314 197.616H189.25C188.298 197.616 187.598 197.793 187.15 198.148C186.72 198.503 186.506 199.035 186.506 199.744C186.506 200.379 186.692 200.845 187.066 201.144C187.439 201.443 188.027 201.657 188.83 201.788L190.902 202.124C192.563 202.385 193.767 202.871 194.514 203.58C195.279 204.289 195.662 205.316 195.662 206.66C195.662 208.079 195.204 209.199 194.29 210.02C193.394 210.823 192.031 211.224 190.202 211.224H189.026Z" fill="#2D2A2A"/>
<path d="M221.344 211L216.08 190.56H218.684L222.156 204.448C222.398 205.419 222.604 206.324 222.772 207.164C222.94 207.985 223.061 208.611 223.136 209.04C223.21 208.611 223.322 207.985 223.472 207.164C223.64 206.324 223.845 205.419 224.088 204.448L227.532 190.56H230.08L224.788 211H221.344Z" fill="#2D2A2A"/>
<path d="M233.849 211V208.704H239.309V197.896H234.549V195.6H241.829V208.704H247.009V211H233.849ZM240.289 192.828C239.673 192.828 239.187 192.669 238.833 192.352C238.478 192.035 238.301 191.605 238.301 191.064C238.301 190.504 238.478 190.065 238.833 189.748C239.187 189.412 239.673 189.244 240.289 189.244C240.905 189.244 241.39 189.412 241.745 189.748C242.099 190.065 242.277 190.504 242.277 191.064C242.277 191.605 242.099 192.035 241.745 192.352C241.39 192.669 240.905 192.828 240.289 192.828Z" fill="#2D2A2A"/>
<path d="M250.834 211V195.6H253.354V198.54H253.886L253.354 199.128C253.354 197.915 253.718 196.981 254.446 196.328C255.174 195.656 256.182 195.32 257.47 195.32C259.019 195.32 260.251 195.796 261.166 196.748C262.08 197.7 262.538 198.997 262.538 200.64V211H260.018V200.92C260.018 199.819 259.719 198.979 259.122 198.4C258.543 197.803 257.75 197.504 256.742 197.504C255.696 197.504 254.866 197.821 254.25 198.456C253.652 199.091 253.354 200.005 253.354 201.2V211H250.834Z" fill="#2D2A2A"/>
<path d="M273.559 211.28C272.327 211.28 271.244 211.047 270.311 210.58C269.396 210.113 268.687 209.441 268.183 208.564C267.679 207.668 267.427 206.613 267.427 205.4V201.2C267.427 199.968 267.679 198.913 268.183 198.036C268.687 197.159 269.396 196.487 270.311 196.02C271.244 195.553 272.327 195.32 273.559 195.32C275.332 195.32 276.76 195.796 277.843 196.748C278.926 197.7 279.495 198.997 279.551 200.64H277.031C276.975 199.651 276.639 198.895 276.023 198.372C275.426 197.831 274.604 197.56 273.559 197.56C272.458 197.56 271.58 197.877 270.927 198.512C270.274 199.128 269.947 200.015 269.947 201.172V205.4C269.947 206.557 270.274 207.453 270.927 208.088C271.58 208.723 272.458 209.04 273.559 209.04C274.604 209.04 275.426 208.769 276.023 208.228C276.639 207.687 276.975 206.931 277.031 205.96H279.551C279.495 207.603 278.926 208.9 277.843 209.852C276.76 210.804 275.332 211.28 273.559 211.28Z" fill="#2D2A2A"/>
<path d="M290.236 211.28C289.023 211.28 287.959 211.037 287.044 210.552C286.148 210.067 285.448 209.385 284.944 208.508C284.459 207.612 284.216 206.576 284.216 205.4V201.2C284.216 200.005 284.459 198.969 284.944 198.092C285.448 197.215 286.148 196.533 287.044 196.048C287.959 195.563 289.023 195.32 290.236 195.32C291.449 195.32 292.504 195.563 293.4 196.048C294.315 196.533 295.015 197.215 295.5 198.092C296.004 198.969 296.256 200.005 296.256 201.2V203.916H286.68V205.4C286.68 206.613 286.988 207.547 287.604 208.2C288.22 208.835 289.097 209.152 290.236 209.152C291.207 209.152 291.991 208.984 292.588 208.648C293.185 208.293 293.549 207.771 293.68 207.08H296.2C296.032 208.368 295.397 209.395 294.296 210.16C293.213 210.907 291.86 211.28 290.236 211.28ZM293.792 202.236V201.2C293.792 199.987 293.484 199.053 292.868 198.4C292.271 197.747 291.393 197.42 290.236 197.42C289.097 197.42 288.22 197.747 287.604 198.4C286.988 199.053 286.68 199.987 286.68 201.2V202.012H293.988L293.792 202.236Z" fill="#2D2A2A"/>
<path d="M301.201 211V195.6H303.721V198.54H304.253L303.721 199.128C303.721 197.915 304.085 196.981 304.813 196.328C305.541 195.656 306.549 195.32 307.837 195.32C309.386 195.32 310.618 195.796 311.533 196.748C312.448 197.7 312.905 198.997 312.905 200.64V211H310.385V200.92C310.385 199.819 310.086 198.979 309.489 198.4C308.91 197.803 308.117 197.504 307.109 197.504C306.064 197.504 305.233 197.821 304.617 198.456C304.02 199.091 303.721 200.005 303.721 201.2V211H301.201Z" fill="#2D2A2A"/>
<path d="M325.494 211C324.169 211 323.133 210.645 322.386 209.936C321.658 209.227 321.294 208.228 321.294 206.94V197.896H316.954V195.6H321.294V191.26H323.814V195.6H329.974V197.896H323.814V206.94C323.814 208.116 324.374 208.704 325.494 208.704H329.694V211H325.494Z" fill="#2D2A2A"/>
<path d="M340.603 211.28C339.894 211.28 339.324 211.075 338.895 210.664C338.484 210.253 338.279 209.703 338.279 209.012C338.279 208.284 338.484 207.705 338.895 207.276C339.324 206.847 339.894 206.632 340.603 206.632C341.312 206.632 341.872 206.847 342.283 207.276C342.712 207.705 342.927 208.284 342.927 209.012C342.927 209.703 342.712 210.253 342.283 210.664C341.872 211.075 341.312 211.28 340.603 211.28Z" fill="#2D2A2A"/>
<path d="M32.94 285V282.704H37.112V266.856H32.94V264.56H43.86V266.856H39.688V282.704H43.86V285H32.94Z" fill="#2D2A2A"/>
<path d="M70.6341 285.28C69.0101 285.28 67.7315 284.869 66.7981 284.048C65.8648 283.208 65.3981 282.079 65.3981 280.66C65.3981 279.223 65.8648 278.093 66.7981 277.272C67.7315 276.451 68.9915 276.04 70.5781 276.04H75.3381V274.5C75.3381 273.548 75.0488 272.82 74.4701 272.316C73.9101 271.793 73.1075 271.532 72.0621 271.532C71.1475 271.532 70.3821 271.728 69.7661 272.12C69.1501 272.493 68.7955 273.007 68.7021 273.66H66.1821C66.3501 272.335 66.9755 271.28 68.0581 270.496C69.1408 269.712 70.4941 269.32 72.1181 269.32C73.8915 269.32 75.2915 269.777 76.3181 270.692C77.3448 271.607 77.8581 272.848 77.8581 274.416V285H75.3941V282.06H74.9741L75.3941 281.64C75.3941 282.76 74.9555 283.647 74.0781 284.3C73.2195 284.953 72.0715 285.28 70.6341 285.28ZM71.2501 283.292C72.4448 283.292 73.4248 282.993 74.1901 282.396C74.9555 281.799 75.3381 281.033 75.3381 280.1V277.916H70.6341C69.7941 277.916 69.1315 278.149 68.6461 278.616C68.1608 279.083 67.9181 279.717 67.9181 280.52C67.9181 281.379 68.2075 282.06 68.7861 282.564C69.3835 283.049 70.2048 283.292 71.2501 283.292Z" fill="#2D2A2A"/>
<path d="M82.2152 285V269.6H84.4272V271.448H84.9312L84.5392 272.12C84.5392 271.261 84.7632 270.58 85.2112 270.076C85.6779 269.572 86.3032 269.32 87.0872 269.32C87.9459 269.32 88.6085 269.637 89.0752 270.272C89.5419 270.907 89.7752 271.803 89.7752 272.96L89.0192 271.448H90.1952L89.6632 272.12C89.6632 271.261 89.8965 270.58 90.3632 270.076C90.8485 269.572 91.4832 269.32 92.2672 269.32C93.2379 269.32 93.9845 269.684 94.5072 270.412C95.0485 271.14 95.3192 272.101 95.3192 273.296V285H92.9952V273.268C92.9952 272.633 92.8552 272.139 92.5752 271.784C92.3139 271.429 91.9219 271.252 91.3992 271.252C90.8952 271.252 90.4939 271.429 90.1952 271.784C89.9152 272.12 89.7752 272.605 89.7752 273.24V285H87.7592V273.268C87.7592 272.615 87.6099 272.12 87.3112 271.784C87.0312 271.429 86.6299 271.252 86.1072 271.252C85.5845 271.252 85.1925 271.429 84.9312 271.784C84.6699 272.12 84.5392 272.605 84.5392 273.24V285H82.2152Z" fill="#2D2A2A"/>
<path d="M122.457 285.28C121.225 285.28 120.143 285.047 119.209 284.58C118.295 284.113 117.585 283.441 117.081 282.564C116.577 281.668 116.325 280.613 116.325 279.4V275.2C116.325 273.968 116.577 272.913 117.081 272.036C117.585 271.159 118.295 270.487 119.209 270.02C120.143 269.553 121.225 269.32 122.457 269.32C124.231 269.32 125.659 269.796 126.741 270.748C127.824 271.7 128.393 272.997 128.449 274.64H125.929C125.873 273.651 125.537 272.895 124.921 272.372C124.324 271.831 123.503 271.56 122.457 271.56C121.356 271.56 120.479 271.877 119.825 272.512C119.172 273.128 118.845 274.015 118.845 275.172V279.4C118.845 280.557 119.172 281.453 119.825 282.088C120.479 282.723 121.356 283.04 122.457 283.04C123.503 283.04 124.324 282.769 124.921 282.228C125.537 281.687 125.873 280.931 125.929 279.96H128.449C128.393 281.603 127.824 282.9 126.741 283.852C125.659 284.804 124.231 285.28 122.457 285.28Z" fill="#2D2A2A"/>
<path d="M139.106 285.28C137.333 285.28 135.914 284.757 134.85 283.712C133.786 282.648 133.254 281.211 133.254 279.4V269.6H135.774V279.4C135.774 280.557 136.073 281.463 136.67 282.116C137.268 282.751 138.08 283.068 139.106 283.068C140.152 283.068 140.973 282.751 141.57 282.116C142.186 281.463 142.494 280.557 142.494 279.4V269.6H145.014V279.4C145.014 281.211 144.473 282.648 143.39 283.712C142.308 284.757 140.88 285.28 139.106 285.28Z" fill="#2D2A2A"/>
<path d="M150.631 285V269.6H153.095V272.54H153.683L152.871 274.36C152.871 272.699 153.226 271.448 153.935 270.608C154.663 269.749 155.737 269.32 157.155 269.32C158.779 269.32 160.067 269.833 161.019 270.86C161.99 271.868 162.475 273.24 162.475 274.976V275.9H159.955V275.2C159.955 273.987 159.657 273.063 159.059 272.428C158.481 271.775 157.65 271.448 156.567 271.448C155.503 271.448 154.663 271.775 154.047 272.428C153.45 273.081 153.151 274.005 153.151 275.2V285H150.631Z" fill="#2D2A2A"/>
<path d="M167.421 285V269.6H169.885V272.54H170.473L169.661 274.36C169.661 272.699 170.015 271.448 170.725 270.608C171.453 269.749 172.526 269.32 173.945 269.32C175.569 269.32 176.857 269.833 177.809 270.86C178.779 271.868 179.264 273.24 179.264 274.976V275.9H176.745V275.2C176.745 273.987 176.446 273.063 175.848 272.428C175.27 271.775 174.439 271.448 173.357 271.448C172.293 271.448 171.453 271.775 170.837 272.428C170.239 273.081 169.941 274.005 169.941 275.2V285H167.421Z" fill="#2D2A2A"/>
<path d="M189.502 285.28C188.288 285.28 187.224 285.037 186.31 284.552C185.414 284.067 184.714 283.385 184.21 282.508C183.724 281.612 183.482 280.576 183.482 279.4V275.2C183.482 274.005 183.724 272.969 184.21 272.092C184.714 271.215 185.414 270.533 186.31 270.048C187.224 269.563 188.288 269.32 189.502 269.32C190.715 269.32 191.77 269.563 192.666 270.048C193.58 270.533 194.28 271.215 194.766 272.092C195.27 272.969 195.522 274.005 195.522 275.2V277.916H185.946V279.4C185.946 280.613 186.254 281.547 186.87 282.2C187.486 282.835 188.363 283.152 189.502 283.152C190.472 283.152 191.256 282.984 191.854 282.648C192.451 282.293 192.815 281.771 192.946 281.08H195.466C195.298 282.368 194.663 283.395 193.562 284.16C192.479 284.907 191.126 285.28 189.502 285.28ZM193.058 276.236V275.2C193.058 273.987 192.75 273.053 192.134 272.4C191.536 271.747 190.659 271.42 189.502 271.42C188.363 271.42 187.486 271.747 186.87 272.4C186.254 273.053 185.946 273.987 185.946 275.2V276.012H193.254L193.058 276.236Z" fill="#2D2A2A"/>
<path d="M200.467 285V269.6H202.987V272.54H203.519L202.987 273.128C202.987 271.915 203.351 270.981 204.079 270.328C204.807 269.656 205.815 269.32 207.103 269.32C208.652 269.32 209.884 269.796 210.799 270.748C211.713 271.7 212.171 272.997 212.171 274.64V285H209.651V274.92C209.651 273.819 209.352 272.979 208.755 272.4C208.176 271.803 207.383 271.504 206.375 271.504C205.329 271.504 204.499 271.821 203.883 272.456C203.285 273.091 202.987 274.005 202.987 275.2V285H200.467Z" fill="#2D2A2A"/>
<path d="M224.76 285C223.434 285 222.398 284.645 221.652 283.936C220.924 283.227 220.56 282.228 220.56 280.94V271.896H216.22V269.6H220.56V265.26H223.08V269.6H229.24V271.896H223.08V280.94C223.08 282.116 223.64 282.704 224.76 282.704H228.96V285H224.76Z" fill="#2D2A2A"/>
<path d="M241.969 285C241.073 285 240.289 284.823 239.617 284.468C238.945 284.113 238.422 283.609 238.049 282.956C237.675 282.303 237.489 281.537 237.489 280.66V266.856H232.309V264.56H240.009V280.66C240.009 281.295 240.186 281.799 240.541 282.172C240.895 282.527 241.371 282.704 241.969 282.704H246.869V285H241.969Z" fill="#2D2A2A"/>
<path d="M253.242 290.04L255.51 284.048L249.798 269.6H252.598L256.182 279.12C256.312 279.437 256.434 279.82 256.546 280.268C256.658 280.697 256.751 281.061 256.826 281.36C256.9 281.061 256.994 280.697 257.106 280.268C257.218 279.82 257.33 279.437 257.442 279.12L260.802 269.6H263.518L255.93 290.04H253.242Z" fill="#2D2A2A"/>
<path d="M288.892 285.28C287.268 285.28 285.989 284.869 285.056 284.048C284.123 283.208 283.656 282.079 283.656 280.66C283.656 279.223 284.123 278.093 285.056 277.272C285.989 276.451 287.249 276.04 288.836 276.04H293.596V274.5C293.596 273.548 293.307 272.82 292.728 272.316C292.168 271.793 291.365 271.532 290.32 271.532C289.405 271.532 288.64 271.728 288.024 272.12C287.408 272.493 287.053 273.007 286.96 273.66H284.44C284.608 272.335 285.233 271.28 286.316 270.496C287.399 269.712 288.752 269.32 290.376 269.32C292.149 269.32 293.549 269.777 294.576 270.692C295.603 271.607 296.116 272.848 296.116 274.416V285H293.652V282.06H293.232L293.652 281.64C293.652 282.76 293.213 283.647 292.336 284.3C291.477 284.953 290.329 285.28 288.892 285.28ZM289.508 283.292C290.703 283.292 291.683 282.993 292.448 282.396C293.213 281.799 293.596 281.033 293.596 280.1V277.916H288.892C288.052 277.916 287.389 278.149 286.904 278.616C286.419 279.083 286.176 279.717 286.176 280.52C286.176 281.379 286.465 282.06 287.044 282.564C287.641 283.049 288.463 283.292 289.508 283.292Z" fill="#2D2A2A"/>
<path d="M323.926 285.28C322.694 285.28 321.611 285.047 320.678 284.58C319.763 284.113 319.054 283.441 318.55 282.564C318.046 281.668 317.794 280.613 317.794 279.4V275.2C317.794 273.968 318.046 272.913 318.55 272.036C319.054 271.159 319.763 270.487 320.678 270.02C321.611 269.553 322.694 269.32 323.926 269.32C325.699 269.32 327.127 269.796 328.21 270.748C329.293 271.7 329.862 272.997 329.918 274.64H327.398C327.342 273.651 327.006 272.895 326.39 272.372C325.793 271.831 324.971 271.56 323.926 271.56C322.825 271.56 321.947 271.877 321.294 272.512C320.641 273.128 320.314 274.015 320.314 275.172V279.4C320.314 280.557 320.641 281.453 321.294 282.088C321.947 282.723 322.825 283.04 323.926 283.04C324.971 283.04 325.793 282.769 326.39 282.228C327.006 281.687 327.342 280.931 327.398 279.96H329.918C329.862 281.603 329.293 282.9 328.21 283.852C327.127 284.804 325.699 285.28 323.926 285.28Z" fill="#2D2A2A"/>
<path d="M340.603 285.224C339.371 285.224 338.307 284.991 337.411 284.524C336.515 284.057 335.815 283.385 335.311 282.508C334.826 281.612 334.583 280.557 334.583 279.344V275.256C334.583 274.024 334.826 272.969 335.311 272.092C335.815 271.215 336.515 270.543 337.411 270.076C338.307 269.609 339.371 269.376 340.603 269.376C341.835 269.376 342.899 269.609 343.795 270.076C344.691 270.543 345.382 271.215 345.867 272.092C346.371 272.969 346.623 274.015 346.623 275.228V279.344C346.623 280.557 346.371 281.612 345.867 282.508C345.382 283.385 344.691 284.057 343.795 284.524C342.899 284.991 341.835 285.224 340.603 285.224ZM340.603 282.984C341.704 282.984 342.563 282.676 343.179 282.06C343.795 281.444 344.103 280.539 344.103 279.344V275.256C344.103 274.061 343.795 273.156 343.179 272.54C342.563 271.924 341.704 271.616 340.603 271.616C339.52 271.616 338.662 271.924 338.027 272.54C337.411 273.156 337.103 274.061 337.103 275.256V279.344C337.103 280.539 337.411 281.444 338.027 282.06C338.662 282.676 339.52 282.984 340.603 282.984Z" fill="#2D2A2A"/>
<path d="M350.84 285V269.6H353.052V271.448H353.556L353.164 272.12C353.164 271.261 353.388 270.58 353.836 270.076C354.303 269.572 354.928 269.32 355.712 269.32C356.571 269.32 357.234 269.637 357.7 270.272C358.167 270.907 358.4 271.803 358.4 272.96L357.644 271.448H358.82L358.288 272.12C358.288 271.261 358.522 270.58 358.988 270.076C359.474 269.572 360.108 269.32 360.892 269.32C361.863 269.32 362.61 269.684 363.132 270.412C363.674 271.14 363.944 272.101 363.944 273.296V285H361.62V273.268C361.62 272.633 361.48 272.139 361.2 271.784C360.939 271.429 360.547 271.252 360.024 271.252C359.52 271.252 359.119 271.429 358.82 271.784C358.54 272.12 358.4 272.605 358.4 273.24V285H356.384V273.268C356.384 272.615 356.235 272.12 355.936 271.784C355.656 271.429 355.255 271.252 354.732 271.252C354.21 271.252 353.818 271.429 353.556 271.784C353.295 272.12 353.164 272.605 353.164 273.24V285H350.84Z" fill="#2D2A2A"/>
<path d="M368.357 290.04V269.6H370.877V272.54H371.381L370.877 273.128C370.877 271.952 371.26 271.028 372.025 270.356C372.809 269.665 373.836 269.32 375.105 269.32C376.655 269.32 377.887 269.833 378.801 270.86C379.735 271.868 380.201 273.259 380.201 275.032V279.54C380.201 280.716 379.987 281.733 379.557 282.592C379.147 283.451 378.559 284.113 377.793 284.58C377.047 285.047 376.151 285.28 375.105 285.28C373.855 285.28 372.837 284.935 372.053 284.244C371.269 283.553 370.877 282.629 370.877 281.472L371.381 282.06H370.821L370.877 285.56V290.04H368.357ZM374.265 283.096C375.329 283.096 376.16 282.779 376.757 282.144C377.373 281.509 377.681 280.595 377.681 279.4V275.2C377.681 274.005 377.373 273.091 376.757 272.456C376.16 271.821 375.329 271.504 374.265 271.504C373.239 271.504 372.417 271.831 371.801 272.484C371.185 273.137 370.877 274.043 370.877 275.2V279.4C370.877 280.557 371.185 281.463 371.801 282.116C372.417 282.769 373.239 283.096 374.265 283.096Z" fill="#2D2A2A"/>
<path d="M390.942 285.28C389.169 285.28 387.75 284.757 386.686 283.712C385.622 282.648 385.09 281.211 385.09 279.4V269.6H387.61V279.4C387.61 280.557 387.909 281.463 388.506 282.116C389.104 282.751 389.916 283.068 390.942 283.068C391.988 283.068 392.809 282.751 393.406 282.116C394.022 281.463 394.33 280.557 394.33 279.4V269.6H396.85V279.4C396.85 281.211 396.309 282.648 395.226 283.712C394.144 284.757 392.716 285.28 390.942 285.28Z" fill="#2D2A2A"/>
<path d="M409.439 285C408.114 285 407.078 284.645 406.331 283.936C405.603 283.227 405.239 282.228 405.239 280.94V271.896H400.899V269.6H405.239V265.26H407.759V269.6H413.919V271.896H407.759V280.94C407.759 282.116 408.319 282.704 409.439 282.704H413.639V285H409.439Z" fill="#2D2A2A"/>
<path d="M424.548 285.28C423.335 285.28 422.271 285.037 421.356 284.552C420.46 284.067 419.76 283.385 419.256 282.508C418.771 281.612 418.528 280.576 418.528 279.4V275.2C418.528 274.005 418.771 272.969 419.256 272.092C419.76 271.215 420.46 270.533 421.356 270.048C422.271 269.563 423.335 269.32 424.548 269.32C425.762 269.32 426.816 269.563 427.712 270.048C428.627 270.533 429.327 271.215 429.812 272.092C430.316 272.969 430.568 274.005 430.568 275.2V277.916H420.992V279.4C420.992 280.613 421.3 281.547 421.916 282.2C422.532 282.835 423.41 283.152 424.548 283.152C425.519 283.152 426.303 282.984 426.9 282.648C427.498 282.293 427.862 281.771 427.992 281.08H430.512C430.344 282.368 429.71 283.395 428.608 284.16C427.526 284.907 426.172 285.28 424.548 285.28ZM428.104 276.236V275.2C428.104 273.987 427.796 273.053 427.18 272.4C426.583 271.747 425.706 271.42 424.548 271.42C423.41 271.42 422.532 271.747 421.916 272.4C421.3 273.053 420.992 273.987 420.992 275.2V276.012H428.3L428.104 276.236Z" fill="#2D2A2A"/>
<path d="M436.046 285V269.6H438.509V272.54H439.098L438.285 274.36C438.285 272.699 438.64 271.448 439.349 270.608C440.077 269.749 441.151 269.32 442.569 269.32C444.193 269.32 445.482 269.833 446.434 270.86C447.404 271.868 447.889 273.24 447.889 274.976V275.9H445.37V275.2C445.37 273.987 445.071 273.063 444.474 272.428C443.895 271.775 443.064 271.448 441.982 271.448C440.918 271.448 440.077 271.775 439.461 272.428C438.864 273.081 438.565 274.005 438.565 275.2V285H436.046Z" fill="#2D2A2A"/>
<path d="M37.924 322.224C36.8787 322.224 35.964 322.065 35.18 321.748C34.4147 321.412 33.7987 320.945 33.332 320.348C32.884 319.751 32.6133 319.041 32.52 318.22H35.04C35.152 318.761 35.4507 319.191 35.936 319.508C36.44 319.825 37.1027 319.984 37.924 319.984H39.1C40.0893 319.984 40.8267 319.788 41.312 319.396C41.7973 318.985 42.04 318.444 42.04 317.772C42.04 317.119 41.816 316.605 41.368 316.232C40.9387 315.84 40.2947 315.579 39.436 315.448L37.364 315.112C35.852 314.851 34.7227 314.384 33.976 313.712C33.248 313.021 32.884 312.023 32.884 310.716C32.884 309.335 33.3227 308.271 34.2 307.524C35.0773 306.759 36.3933 306.376 38.148 306.376H39.212C40.6867 306.376 41.872 306.721 42.768 307.412C43.664 308.103 44.2053 309.036 44.392 310.212H41.872C41.76 309.727 41.48 309.344 41.032 309.064C40.584 308.765 39.9773 308.616 39.212 308.616H38.148C37.196 308.616 36.496 308.793 36.048 309.148C35.6187 309.503 35.404 310.035 35.404 310.744C35.404 311.379 35.5907 311.845 35.964 312.144C36.3373 312.443 36.9253 312.657 37.728 312.788L39.8 313.124C41.4613 313.385 42.6653 313.871 43.412 314.58C44.1773 315.289 44.56 316.316 44.56 317.66C44.56 319.079 44.1027 320.199 43.188 321.02C42.292 321.823 40.9293 322.224 39.1 322.224H37.924Z" fill="#2D2A2A"/>
<path d="M55.3011 322.28C54.0691 322.28 52.9864 322.047 52.0531 321.58C51.1384 321.113 50.4291 320.441 49.9251 319.564C49.4211 318.668 49.1691 317.613 49.1691 316.4V312.2C49.1691 310.968 49.4211 309.913 49.9251 309.036C50.4291 308.159 51.1384 307.487 52.0531 307.02C52.9864 306.553 54.0691 306.32 55.3011 306.32C57.0744 306.32 58.5024 306.796 59.5851 307.748C60.6677 308.7 61.2371 309.997 61.2931 311.64H58.7731C58.7171 310.651 58.3811 309.895 57.7651 309.372C57.1677 308.831 56.3464 308.56 55.3011 308.56C54.1997 308.56 53.3224 308.877 52.6691 309.512C52.0157 310.128 51.6891 311.015 51.6891 312.172V316.4C51.6891 317.557 52.0157 318.453 52.6691 319.088C53.3224 319.723 54.1997 320.04 55.3011 320.04C56.3464 320.04 57.1677 319.769 57.7651 319.228C58.3811 318.687 58.7171 317.931 58.7731 316.96H61.2931C61.2371 318.603 60.6677 319.9 59.5851 320.852C58.5024 321.804 57.0744 322.28 55.3011 322.28Z" fill="#2D2A2A"/>
<path d="M65.9581 322V319.704H71.4181V308.896H66.6581V306.6H73.9381V319.704H79.1181V322H65.9581ZM72.3981 303.828C71.7821 303.828 71.2968 303.669 70.9421 303.352C70.5875 303.035 70.4101 302.605 70.4101 302.064C70.4101 301.504 70.5875 301.065 70.9421 300.748C71.2968 300.412 71.7821 300.244 72.3981 300.244C73.0141 300.244 73.4995 300.412 73.8541 300.748C74.2088 301.065 74.3861 301.504 74.3861 302.064C74.3861 302.605 74.2088 303.035 73.8541 303.352C73.4995 303.669 73.0141 303.828 72.3981 303.828Z" fill="#2D2A2A"/>
<path d="M88.7672 322.28C87.5539 322.28 86.4899 322.037 85.5752 321.552C84.6792 321.067 83.9792 320.385 83.4752 319.508C82.9899 318.612 82.7472 317.576 82.7472 316.4V312.2C82.7472 311.005 82.9899 309.969 83.4752 309.092C83.9792 308.215 84.6792 307.533 85.5752 307.048C86.4899 306.563 87.5539 306.32 88.7672 306.32C89.9805 306.32 91.0352 306.563 91.9312 307.048C92.8459 307.533 93.5459 308.215 94.0312 309.092C94.5352 309.969 94.7872 311.005 94.7872 312.2V314.916H85.2112V316.4C85.2112 317.613 85.5192 318.547 86.1352 319.2C86.7512 319.835 87.6285 320.152 88.7672 320.152C89.7379 320.152 90.5219 319.984 91.1192 319.648C91.7165 319.293 92.0805 318.771 92.2112 318.08H94.7312C94.5632 319.368 93.9285 320.395 92.8272 321.16C91.7445 321.907 90.3912 322.28 88.7672 322.28ZM92.3232 313.236V312.2C92.3232 310.987 92.0152 310.053 91.3992 309.4C90.8019 308.747 89.9245 308.42 88.7672 308.42C87.6285 308.42 86.7512 308.747 86.1352 309.4C85.5192 310.053 85.2112 310.987 85.2112 312.2V313.012H92.5192L92.3232 313.236Z" fill="#2D2A2A"/>
<path d="M99.7323 322V306.6H102.252V309.54H102.784L102.252 310.128C102.252 308.915 102.616 307.981 103.344 307.328C104.072 306.656 105.08 306.32 106.368 306.32C107.918 306.32 109.15 306.796 110.064 307.748C110.979 308.7 111.436 309.997 111.436 311.64V322H108.916V311.92C108.916 310.819 108.618 309.979 108.02 309.4C107.442 308.803 106.648 308.504 105.64 308.504C104.595 308.504 103.764 308.821 103.148 309.456C102.551 310.091 102.252 311.005 102.252 312.2V322H99.7323Z" fill="#2D2A2A"/>
<path d="M122.457 322.28C121.225 322.28 120.143 322.047 119.209 321.58C118.295 321.113 117.585 320.441 117.081 319.564C116.577 318.668 116.325 317.613 116.325 316.4V312.2C116.325 310.968 116.577 309.913 117.081 309.036C117.585 308.159 118.295 307.487 119.209 307.02C120.143 306.553 121.225 306.32 122.457 306.32C124.231 306.32 125.659 306.796 126.741 307.748C127.824 308.7 128.393 309.997 128.449 311.64H125.929C125.873 310.651 125.537 309.895 124.921 309.372C124.324 308.831 123.503 308.56 122.457 308.56C121.356 308.56 120.479 308.877 119.825 309.512C119.172 310.128 118.845 311.015 118.845 312.172V316.4C118.845 317.557 119.172 318.453 119.825 319.088C120.479 319.723 121.356 320.04 122.457 320.04C123.503 320.04 124.324 319.769 124.921 319.228C125.537 318.687 125.873 317.931 125.929 316.96H128.449C128.393 318.603 127.824 319.9 126.741 320.852C125.659 321.804 124.231 322.28 122.457 322.28Z" fill="#2D2A2A"/>
<path d="M139.134 322.28C137.921 322.28 136.857 322.037 135.942 321.552C135.046 321.067 134.346 320.385 133.842 319.508C133.357 318.612 133.114 317.576 133.114 316.4V312.2C133.114 311.005 133.357 309.969 133.842 309.092C134.346 308.215 135.046 307.533 135.942 307.048C136.857 306.563 137.921 306.32 139.134 306.32C140.348 306.32 141.402 306.563 142.298 307.048C143.213 307.533 143.913 308.215 144.398 309.092C144.902 309.969 145.154 311.005 145.154 312.2V314.916H135.578V316.4C135.578 317.613 135.886 318.547 136.502 319.2C137.118 319.835 137.996 320.152 139.134 320.152C140.105 320.152 140.889 319.984 141.486 319.648C142.084 319.293 142.448 318.771 142.578 318.08H145.098C144.93 319.368 144.296 320.395 143.194 321.16C142.112 321.907 140.758 322.28 139.134 322.28ZM142.69 313.236V312.2C142.69 310.987 142.382 310.053 141.766 309.4C141.169 308.747 140.292 308.42 139.134 308.42C137.996 308.42 137.118 308.747 136.502 309.4C135.886 310.053 135.578 310.987 135.578 312.2V313.012H142.886L142.69 313.236Z" fill="#2D2A2A"/>
<path d="M172.236 322.224C171.191 322.224 170.276 322.065 169.492 321.748C168.727 321.412 168.111 320.945 167.645 320.348C167.197 319.751 166.926 319.041 166.833 318.22H169.352C169.464 318.761 169.763 319.191 170.249 319.508C170.753 319.825 171.415 319.984 172.236 319.984H173.413C174.402 319.984 175.139 319.788 175.624 319.396C176.11 318.985 176.352 318.444 176.352 317.772C176.352 317.119 176.128 316.605 175.68 316.232C175.251 315.84 174.607 315.579 173.749 315.448L171.676 315.112C170.164 314.851 169.035 314.384 168.288 313.712C167.56 313.021 167.197 312.023 167.197 310.716C167.197 309.335 167.635 308.271 168.512 307.524C169.39 306.759 170.706 306.376 172.46 306.376H173.525C174.999 306.376 176.185 306.721 177.081 307.412C177.977 308.103 178.518 309.036 178.704 310.212H176.184C176.072 309.727 175.792 309.344 175.344 309.064C174.896 308.765 174.29 308.616 173.525 308.616H172.46C171.508 308.616 170.809 308.793 170.361 309.148C169.931 309.503 169.717 310.035 169.717 310.744C169.717 311.379 169.903 311.845 170.277 312.144C170.65 312.443 171.238 312.657 172.04 312.788L174.113 313.124C175.774 313.385 176.978 313.871 177.725 314.58C178.49 315.289 178.872 316.316 178.872 317.66C178.872 319.079 178.415 320.199 177.501 321.02C176.605 321.823 175.242 322.224 173.413 322.224H172.236Z" fill="#2D2A2A"/>
<path d="M191.182 322C189.856 322 188.82 321.645 188.074 320.936C187.346 320.227 186.982 319.228 186.982 317.94V308.896H182.642V306.6H186.982V302.26H189.502V306.6H195.662V308.896H189.502V317.94C189.502 319.116 190.062 319.704 191.182 319.704H195.382V322H191.182Z" fill="#2D2A2A"/>
<path d="M206.263 322.28C204.489 322.28 203.071 321.757 202.007 320.712C200.943 319.648 200.411 318.211 200.411 316.4V306.6H202.931V316.4C202.931 317.557 203.229 318.463 203.827 319.116C204.424 319.751 205.236 320.068 206.263 320.068C207.308 320.068 208.129 319.751 208.727 319.116C209.343 318.463 209.651 317.557 209.651 316.4V306.6H212.171V316.4C212.171 318.211 211.629 319.648 210.547 320.712C209.464 321.757 208.036 322.28 206.263 322.28Z" fill="#2D2A2A"/>
<path d="M222.184 322.28C220.653 322.28 219.412 321.767 218.46 320.74C217.526 319.713 217.06 318.323 217.06 316.568V312.06C217.06 310.287 217.526 308.887 218.46 307.86C219.393 306.833 220.634 306.32 222.184 306.32C223.453 306.32 224.47 306.665 225.236 307.356C226.001 308.047 226.384 308.971 226.384 310.128L225.88 309.54H226.44L226.384 306.04V301.56H228.904V322H226.384V319.06H225.88L226.384 318.472C226.384 319.648 226.001 320.581 225.236 321.272C224.47 321.944 223.453 322.28 222.184 322.28ZM223.024 320.096C224.069 320.096 224.89 319.769 225.488 319.116C226.085 318.463 226.384 317.557 226.384 316.4V312.2C226.384 311.043 226.085 310.137 225.488 309.484C224.89 308.831 224.069 308.504 223.024 308.504C221.96 308.504 221.12 308.821 220.504 309.456C219.888 310.091 219.58 311.005 219.58 312.2V316.4C219.58 317.595 219.888 318.509 220.504 319.144C221.12 319.779 221.96 320.096 223.024 320.096Z" fill="#2D2A2A"/>
<path d="M239.869 322.28C238.655 322.28 237.591 322.037 236.677 321.552C235.781 321.067 235.081 320.385 234.577 319.508C234.091 318.612 233.849 317.576 233.849 316.4V312.2C233.849 311.005 234.091 309.969 234.577 309.092C235.081 308.215 235.781 307.533 236.677 307.048C237.591 306.563 238.655 306.32 239.869 306.32C241.082 306.32 242.137 306.563 243.033 307.048C243.947 307.533 244.647 308.215 245.133 309.092C245.637 309.969 245.889 311.005 245.889 312.2V314.916H236.313V316.4C236.313 317.613 236.621 318.547 237.237 319.2C237.853 319.835 238.73 320.152 239.869 320.152C240.839 320.152 241.623 319.984 242.221 319.648C242.818 319.293 243.182 318.771 243.313 318.08H245.833C245.665 319.368 245.03 320.395 243.929 321.16C242.846 321.907 241.493 322.28 239.869 322.28ZM243.425 313.236V312.2C243.425 310.987 243.117 310.053 242.501 309.4C241.903 308.747 241.026 308.42 239.869 308.42C238.73 308.42 237.853 308.747 237.237 309.4C236.621 310.053 236.313 310.987 236.313 312.2V313.012H243.621L243.425 313.236Z" fill="#2D2A2A"/>
<path d="M250.834 322V306.6H253.354V309.54H253.886L253.354 310.128C253.354 308.915 253.718 307.981 254.446 307.328C255.174 306.656 256.182 306.32 257.47 306.32C259.019 306.32 260.251 306.796 261.166 307.748C262.08 308.7 262.538 309.997 262.538 311.64V322H260.018V311.92C260.018 310.819 259.719 309.979 259.122 309.4C258.543 308.803 257.75 308.504 256.742 308.504C255.696 308.504 254.866 308.821 254.25 309.456C253.652 310.091 253.354 311.005 253.354 312.2V322H250.834Z" fill="#2D2A2A"/>
<path d="M275.127 322C273.802 322 272.766 321.645 272.019 320.936C271.291 320.227 270.927 319.228 270.927 317.94V308.896H266.587V306.6H270.927V302.26H273.447V306.6H279.607V308.896H273.447V317.94C273.447 319.116 274.007 319.704 275.127 319.704H279.327V322H275.127Z" fill="#2D2A2A"/>
<path d="M305.681 322.28C304.057 322.28 302.778 321.869 301.845 321.048C300.912 320.208 300.445 319.079 300.445 317.66C300.445 316.223 300.912 315.093 301.845 314.272C302.778 313.451 304.038 313.04 305.625 313.04H310.385V311.5C310.385 310.548 310.096 309.82 309.517 309.316C308.957 308.793 308.154 308.532 307.109 308.532C306.194 308.532 305.429 308.728 304.813 309.12C304.197 309.493 303.842 310.007 303.749 310.66H301.229C301.397 309.335 302.022 308.28 303.105 307.496C304.188 306.712 305.541 306.32 307.165 306.32C308.938 306.32 310.338 306.777 311.365 307.692C312.392 308.607 312.905 309.848 312.905 311.416V322H310.441V319.06H310.021L310.441 318.64C310.441 319.76 310.002 320.647 309.125 321.3C308.266 321.953 307.118 322.28 305.681 322.28ZM306.297 320.292C307.492 320.292 308.472 319.993 309.237 319.396C310.002 318.799 310.385 318.033 310.385 317.1V314.916H305.681C304.841 314.916 304.178 315.149 303.693 315.616C303.208 316.083 302.965 316.717 302.965 317.52C302.965 318.379 303.254 319.06 303.833 319.564C304.43 320.049 305.252 320.292 306.297 320.292Z" fill="#2D2A2A"/>
<path d="M325.494 322C324.169 322 323.133 321.645 322.386 320.936C321.658 320.227 321.294 319.228 321.294 317.94V308.896H316.954V306.6H321.294V302.26H323.814V306.6H329.974V308.896H323.814V317.94C323.814 319.116 324.374 319.704 325.494 319.704H329.694V322H325.494Z" fill="#2D2A2A"/>
<path d="M359.072 322C357.747 322 356.711 321.645 355.964 320.936C355.236 320.227 354.872 319.228 354.872 317.94V308.896H350.532V306.6H354.872V302.26H357.392V306.6H363.552V308.896H357.392V317.94C357.392 319.116 357.952 319.704 359.072 319.704H363.272V322H359.072Z" fill="#2D2A2A"/>
<path d="M368.357 322V301.56H370.877V309.54H371.409L370.877 310.128C370.877 308.915 371.241 307.981 371.969 307.328C372.697 306.656 373.705 306.32 374.993 306.32C376.543 306.32 377.775 306.796 378.689 307.748C379.604 308.7 380.061 309.997 380.061 311.64V322H377.541V311.92C377.541 310.819 377.243 309.969 376.645 309.372C376.067 308.756 375.273 308.448 374.265 308.448C373.22 308.448 372.389 308.775 371.773 309.428C371.176 310.081 370.877 311.005 370.877 312.2V322H368.357Z" fill="#2D2A2A"/>
<path d="M390.97 322.28C389.757 322.28 388.693 322.037 387.778 321.552C386.882 321.067 386.182 320.385 385.678 319.508C385.193 318.612 384.95 317.576 384.95 316.4V312.2C384.95 311.005 385.193 309.969 385.678 309.092C386.182 308.215 386.882 307.533 387.778 307.048C388.693 306.563 389.757 306.32 390.97 306.32C392.184 306.32 393.238 306.563 394.134 307.048C395.049 307.533 395.749 308.215 396.234 309.092C396.738 309.969 396.99 311.005 396.99 312.2V314.916H387.414V316.4C387.414 317.613 387.722 318.547 388.338 319.2C388.954 319.835 389.832 320.152 390.97 320.152C391.941 320.152 392.725 319.984 393.322 319.648C393.92 319.293 394.284 318.771 394.414 318.08H396.934C396.766 319.368 396.132 320.395 395.03 321.16C393.948 321.907 392.594 322.28 390.97 322.28ZM394.526 313.236V312.2C394.526 310.987 394.218 310.053 393.602 309.4C393.005 308.747 392.128 308.42 390.97 308.42C389.832 308.42 388.954 308.747 388.338 309.4C387.722 310.053 387.414 310.987 387.414 312.2V313.012H394.722L394.526 313.236Z" fill="#2D2A2A"/>
<path d="M38.4 359.28C36.496 359.28 35.04 358.757 34.032 357.712C33.024 356.648 32.52 355.211 32.52 353.4V338.56H35.04V353.4C35.04 354.52 35.3107 355.407 35.852 356.06C36.412 356.713 37.2613 357.04 38.4 357.04C39.52 357.04 40.36 356.713 40.92 356.06C41.48 355.407 41.76 354.52 41.76 353.4V338.56H44.28V353.4C44.28 355.229 43.776 356.667 42.768 357.712C41.7787 358.757 40.3227 359.28 38.4 359.28Z" fill="#2D2A2A"/>
<path d="M49.3651 359V343.6H51.8851V346.54H52.4171L51.8851 347.128C51.8851 345.915 52.2491 344.981 52.9771 344.328C53.7051 343.656 54.7131 343.32 56.0011 343.32C57.5504 343.32 58.7824 343.796 59.6971 344.748C60.6117 345.7 61.0691 346.997 61.0691 348.64V359H58.5491V348.92C58.5491 347.819 58.2504 346.979 57.6531 346.4C57.0744 345.803 56.2811 345.504 55.2731 345.504C54.2277 345.504 53.3971 345.821 52.7811 346.456C52.1837 347.091 51.8851 348.005 51.8851 349.2V359H49.3651Z" fill="#2D2A2A"/>
<path d="M65.9581 359V356.704H71.4181V345.896H66.6581V343.6H73.9381V356.704H79.1181V359H65.9581ZM72.3981 340.828C71.7821 340.828 71.2968 340.669 70.9421 340.352C70.5875 340.035 70.4101 339.605 70.4101 339.064C70.4101 338.504 70.5875 338.065 70.9421 337.748C71.2968 337.412 71.7821 337.244 72.3981 337.244C73.0141 337.244 73.4995 337.412 73.8541 337.748C74.2088 338.065 74.3861 338.504 74.3861 339.064C74.3861 339.605 74.2088 340.035 73.8541 340.352C73.4995 340.669 73.0141 340.828 72.3981 340.828Z" fill="#2D2A2A"/>
<path d="M87.0592 359L81.9072 343.6H84.4832L87.8992 353.96C88.1045 354.576 88.2912 355.173 88.4592 355.752C88.6272 356.312 88.7485 356.751 88.8232 357.068C88.9165 356.751 89.0472 356.312 89.2152 355.752C89.3832 355.173 89.5605 354.576 89.7472 353.96L93.0792 343.6H95.6272L90.4752 359H87.0592Z" fill="#2D2A2A"/>
<path d="M105.556 359.28C104.343 359.28 103.279 359.037 102.364 358.552C101.468 358.067 100.768 357.385 100.264 356.508C99.7789 355.612 99.5362 354.576 99.5362 353.4V349.2C99.5362 348.005 99.7789 346.969 100.264 346.092C100.768 345.215 101.468 344.533 102.364 344.048C103.279 343.563 104.343 343.32 105.556 343.32C106.77 343.32 107.824 343.563 108.72 344.048C109.635 344.533 110.335 345.215 110.82 346.092C111.324 346.969 111.576 348.005 111.576 349.2V351.916H102V353.4C102 354.613 102.308 355.547 102.924 356.2C103.54 356.835 104.418 357.152 105.556 357.152C106.527 357.152 107.311 356.984 107.908 356.648C108.506 356.293 108.87 355.771 109 355.08H111.52C111.352 356.368 110.718 357.395 109.616 358.16C108.534 358.907 107.18 359.28 105.556 359.28ZM109.112 350.236V349.2C109.112 347.987 108.804 347.053 108.188 346.4C107.591 345.747 106.714 345.42 105.556 345.42C104.418 345.42 103.54 345.747 102.924 346.4C102.308 347.053 102 347.987 102 349.2V350.012H109.308L109.112 350.236Z" fill="#2D2A2A"/>
<path d="M117.053 359V343.6H119.517V346.54H120.105L119.293 348.36C119.293 346.699 119.648 345.448 120.357 344.608C121.085 343.749 122.159 343.32 123.577 343.32C125.201 343.32 126.489 343.833 127.441 344.86C128.412 345.868 128.897 347.24 128.897 348.976V349.9H126.377V349.2C126.377 347.987 126.079 347.063 125.481 346.428C124.903 345.775 124.072 345.448 122.989 345.448C121.925 345.448 121.085 345.775 120.469 346.428C119.872 347.081 119.573 348.005 119.573 349.2V359H117.053Z" fill="#2D2A2A"/>
<path d="M138.658 359.224C137.613 359.224 136.698 359.065 135.914 358.748C135.149 358.412 134.533 357.945 134.066 357.348C133.618 356.751 133.348 356.041 133.254 355.22H135.774C135.886 355.761 136.185 356.191 136.67 356.508C137.174 356.825 137.837 356.984 138.658 356.984H139.834C140.824 356.984 141.561 356.788 142.046 356.396C142.532 355.985 142.774 355.444 142.774 354.772C142.774 354.119 142.55 353.605 142.102 353.232C141.673 352.84 141.029 352.579 140.17 352.448L138.098 352.112C136.586 351.851 135.457 351.384 134.71 350.712C133.982 350.021 133.618 349.023 133.618 347.716C133.618 346.335 134.057 345.271 134.934 344.524C135.812 343.759 137.128 343.376 138.882 343.376H139.946C141.421 343.376 142.606 343.721 143.502 344.412C144.398 345.103 144.94 346.036 145.126 347.212H142.606C142.494 346.727 142.214 346.344 141.766 346.064C141.318 345.765 140.712 345.616 139.946 345.616H138.882C137.93 345.616 137.23 345.793 136.782 346.148C136.353 346.503 136.138 347.035 136.138 347.744C136.138 348.379 136.325 348.845 136.698 349.144C137.072 349.443 137.66 349.657 138.462 349.788L140.534 350.124C142.196 350.385 143.4 350.871 144.146 351.58C144.912 352.289 145.294 353.316 145.294 354.66C145.294 356.079 144.837 357.199 143.922 358.02C143.026 358.823 141.664 359.224 139.834 359.224H138.658Z" fill="#2D2A2A"/>
<path d="M149.903 359V356.704H155.363V345.896H150.603V343.6H157.883V356.704H163.063V359H149.903ZM156.343 340.828C155.727 340.828 155.242 340.669 154.887 340.352C154.533 340.035 154.355 339.605 154.355 339.064C154.355 338.504 154.533 338.065 154.887 337.748C155.242 337.412 155.727 337.244 156.343 337.244C156.959 337.244 157.445 337.412 157.799 337.748C158.154 338.065 158.331 338.504 158.331 339.064C158.331 339.605 158.154 340.035 157.799 340.352C157.445 340.669 156.959 340.828 156.343 340.828Z" fill="#2D2A2A"/>
<path d="M174.393 359C173.067 359 172.031 358.645 171.285 357.936C170.557 357.227 170.193 356.228 170.193 354.94V345.896H165.852V343.6H170.193V339.26H172.712V343.6H178.872V345.896H172.712V354.94C172.712 356.116 173.273 356.704 174.393 356.704H178.592V359H174.393Z" fill="#2D2A2A"/>
<path d="M186.086 364.04L188.354 358.048L182.642 343.6H185.442L189.026 353.12C189.156 353.437 189.278 353.82 189.39 354.268C189.502 354.697 189.595 355.061 189.67 355.36C189.744 355.061 189.838 354.697 189.95 354.268C190.062 353.82 190.174 353.437 190.286 353.12L193.646 343.6H196.362L188.774 364.04H186.086Z" fill="#2D2A2A"/>
<path d="M223.08 359.224C221.848 359.224 220.784 358.991 219.888 358.524C218.992 358.057 218.292 357.385 217.788 356.508C217.302 355.612 217.06 354.557 217.06 353.344V349.256C217.06 348.024 217.302 346.969 217.788 346.092C218.292 345.215 218.992 344.543 219.888 344.076C220.784 343.609 221.848 343.376 223.08 343.376C224.312 343.376 225.376 343.609 226.272 344.076C227.168 344.543 227.858 345.215 228.344 346.092C228.848 346.969 229.1 348.015 229.1 349.228V353.344C229.1 354.557 228.848 355.612 228.344 356.508C227.858 357.385 227.168 358.057 226.272 358.524C225.376 358.991 224.312 359.224 223.08 359.224ZM223.08 356.984C224.181 356.984 225.04 356.676 225.656 356.06C226.272 355.444 226.58 354.539 226.58 353.344V349.256C226.58 348.061 226.272 347.156 225.656 346.54C225.04 345.924 224.181 345.616 223.08 345.616C221.997 345.616 221.138 345.924 220.504 346.54C219.888 347.156 219.58 348.061 219.58 349.256V353.344C219.58 354.539 219.888 355.444 220.504 356.06C221.138 356.676 221.997 356.984 223.08 356.984Z" fill="#2D2A2A"/>
<path d="M237.629 359V347.436H233.149V345.14H237.629V342.48C237.629 341.267 238.011 340.315 238.777 339.624C239.542 338.915 240.597 338.56 241.941 338.56H246.449V340.856H241.941C241.362 340.856 240.914 340.996 240.597 341.276C240.298 341.537 240.149 341.939 240.149 342.48V345.14H246.449V347.436H240.149V359H237.629Z" fill="#2D2A2A"/>
<path d="M267.175 359V338.56H270.479L272.607 345.168C272.812 345.765 272.999 346.363 273.167 346.96C273.335 347.539 273.456 347.987 273.531 348.304C273.624 347.987 273.746 347.539 273.895 346.96C274.044 346.363 274.212 345.756 274.399 345.14L276.415 338.56H279.719V359H277.255V351.58C277.255 350.759 277.283 349.825 277.339 348.78C277.395 347.735 277.47 346.671 277.563 345.588C277.656 344.487 277.75 343.441 277.843 342.452C277.955 341.444 278.048 340.567 278.123 339.82L274.819 350.04H272.159L268.827 339.82C268.92 340.548 269.014 341.397 269.107 342.368C269.2 343.32 269.284 344.337 269.359 345.42C269.434 346.484 269.499 347.548 269.555 348.612C269.611 349.676 269.639 350.665 269.639 351.58V359H267.175Z" fill="#2D2A2A"/>
<path d="M284.216 359V356.704H289.676V345.896H284.916V343.6H292.196V356.704H297.376V359H284.216ZM290.656 340.828C290.04 340.828 289.555 340.669 289.2 340.352C288.845 340.035 288.668 339.605 288.668 339.064C288.668 338.504 288.845 338.065 289.2 337.748C289.555 337.412 290.04 337.244 290.656 337.244C291.272 337.244 291.757 337.412 292.112 337.748C292.467 338.065 292.644 338.504 292.644 339.064C292.644 339.605 292.467 340.035 292.112 340.352C291.757 340.669 291.272 340.828 290.656 340.828Z" fill="#2D2A2A"/>
<path d="M301.201 359V343.6H303.721V346.54H304.253L303.721 347.128C303.721 345.915 304.085 344.981 304.813 344.328C305.541 343.656 306.549 343.32 307.837 343.32C309.386 343.32 310.618 343.796 311.533 344.748C312.448 345.7 312.905 346.997 312.905 348.64V359H310.385V348.92C310.385 347.819 310.086 346.979 309.489 346.4C308.91 345.803 308.117 345.504 307.109 345.504C306.064 345.504 305.233 345.821 304.617 346.456C304.02 347.091 303.721 348.005 303.721 349.2V359H301.201Z" fill="#2D2A2A"/>
<path d="M317.99 359V343.6H320.51V346.54H321.042L320.51 347.128C320.51 345.915 320.874 344.981 321.602 344.328C322.33 343.656 323.338 343.32 324.626 343.32C326.175 343.32 327.407 343.796 328.322 344.748C329.237 345.7 329.694 346.997 329.694 348.64V359H327.174V348.92C327.174 347.819 326.875 346.979 326.278 346.4C325.699 345.803 324.906 345.504 323.898 345.504C322.853 345.504 322.022 345.821 321.406 346.456C320.809 347.091 320.51 348.005 320.51 349.2V359H317.99Z" fill="#2D2A2A"/>
<path d="M340.603 359.28C339.39 359.28 338.326 359.037 337.411 358.552C336.515 358.067 335.815 357.385 335.311 356.508C334.826 355.612 334.583 354.576 334.583 353.4V349.2C334.583 348.005 334.826 346.969 335.311 346.092C335.815 345.215 336.515 344.533 337.411 344.048C338.326 343.563 339.39 343.32 340.603 343.32C341.816 343.32 342.871 343.563 343.767 344.048C344.682 344.533 345.382 345.215 345.867 346.092C346.371 346.969 346.623 348.005 346.623 349.2V351.916H337.047V353.4C337.047 354.613 337.355 355.547 337.971 356.2C338.587 356.835 339.464 357.152 340.603 357.152C341.574 357.152 342.358 356.984 342.955 356.648C343.552 356.293 343.916 355.771 344.047 355.08H346.567C346.399 356.368 345.764 357.395 344.663 358.16C343.58 358.907 342.227 359.28 340.603 359.28ZM344.159 350.236V349.2C344.159 347.987 343.851 347.053 343.235 346.4C342.638 345.747 341.76 345.42 340.603 345.42C339.464 345.42 338.587 345.747 337.971 346.4C337.355 347.053 337.047 347.987 337.047 349.2V350.012H344.355L344.159 350.236Z" fill="#2D2A2A"/>
<path d="M356.916 359.224C355.871 359.224 354.956 359.065 354.172 358.748C353.407 358.412 352.791 357.945 352.324 357.348C351.876 356.751 351.606 356.041 351.512 355.22H354.032C354.144 355.761 354.443 356.191 354.928 356.508C355.432 356.825 356.095 356.984 356.916 356.984H358.092C359.082 356.984 359.819 356.788 360.304 356.396C360.79 355.985 361.032 355.444 361.032 354.772C361.032 354.119 360.808 353.605 360.36 353.232C359.931 352.84 359.287 352.579 358.428 352.448L356.356 352.112C354.844 351.851 353.715 351.384 352.968 350.712C352.24 350.021 351.876 349.023 351.876 347.716C351.876 346.335 352.315 345.271 353.192 344.524C354.07 343.759 355.386 343.376 357.14 343.376H358.204C359.679 343.376 360.864 343.721 361.76 344.412C362.656 345.103 363.198 346.036 363.384 347.212H360.864C360.752 346.727 360.472 346.344 360.024 346.064C359.576 345.765 358.97 345.616 358.204 345.616H357.14C356.188 345.616 355.488 345.793 355.04 346.148C354.611 346.503 354.396 347.035 354.396 347.744C354.396 348.379 354.583 348.845 354.956 349.144C355.33 349.443 355.918 349.657 356.72 349.788L358.792 350.124C360.454 350.385 361.658 350.871 362.404 351.58C363.17 352.289 363.552 353.316 363.552 354.66C363.552 356.079 363.095 357.199 362.18 358.02C361.284 358.823 359.922 359.224 358.092 359.224H356.916Z" fill="#2D2A2A"/>
<path d="M374.181 359.224C372.949 359.224 371.885 358.991 370.989 358.524C370.093 358.057 369.393 357.385 368.889 356.508C368.404 355.612 368.161 354.557 368.161 353.344V349.256C368.161 348.024 368.404 346.969 368.889 346.092C369.393 345.215 370.093 344.543 370.989 344.076C371.885 343.609 372.949 343.376 374.181 343.376C375.413 343.376 376.477 343.609 377.373 344.076C378.269 344.543 378.96 345.215 379.445 346.092C379.949 346.969 380.201 348.015 380.201 349.228V353.344C380.201 354.557 379.949 355.612 379.445 356.508C378.96 357.385 378.269 358.057 377.373 358.524C376.477 358.991 375.413 359.224 374.181 359.224ZM374.181 356.984C375.283 356.984 376.141 356.676 376.757 356.06C377.373 355.444 377.681 354.539 377.681 353.344V349.256C377.681 348.061 377.373 347.156 376.757 346.54C376.141 345.924 375.283 345.616 374.181 345.616C373.099 345.616 372.24 345.924 371.605 346.54C370.989 347.156 370.681 348.061 370.681 349.256V353.344C370.681 354.539 370.989 355.444 371.605 356.06C372.24 356.676 373.099 356.984 374.181 356.984Z" fill="#2D2A2A"/>
<path d="M392.65 359C391.325 359 390.289 358.645 389.542 357.936C388.814 357.227 388.45 356.228 388.45 354.94V345.896H384.11V343.6H388.45V339.26H390.97V343.6H397.13V345.896H390.97V354.94C390.97 356.116 391.53 356.704 392.65 356.704H396.85V359H392.65Z" fill="#2D2A2A"/>
<path d="M406.415 359.28C404.791 359.28 403.513 358.869 402.579 358.048C401.646 357.208 401.179 356.079 401.179 354.66C401.179 353.223 401.646 352.093 402.579 351.272C403.513 350.451 404.773 350.04 406.359 350.04H411.119V348.5C411.119 347.548 410.83 346.82 410.251 346.316C409.691 345.793 408.889 345.532 407.843 345.532C406.929 345.532 406.163 345.728 405.547 346.12C404.931 346.493 404.577 347.007 404.483 347.66H401.963C402.131 346.335 402.757 345.28 403.839 344.496C404.922 343.712 406.275 343.32 407.899 343.32C409.673 343.32 411.073 343.777 412.099 344.692C413.126 345.607 413.639 346.848 413.639 348.416V359H411.175V356.06H410.755L411.175 355.64C411.175 356.76 410.737 357.647 409.859 358.3C409.001 358.953 407.853 359.28 406.415 359.28ZM407.031 357.292C408.226 357.292 409.206 356.993 409.971 356.396C410.737 355.799 411.119 355.033 411.119 354.1V351.916H406.415C405.575 351.916 404.913 352.149 404.427 352.616C403.942 353.083 403.699 353.717 403.699 354.52C403.699 355.379 403.989 356.06 404.567 356.564C405.165 357.049 405.986 357.292 407.031 357.292Z" fill="#2D2A2A"/>
<path d="M424.548 359.28C423.839 359.28 423.27 359.075 422.84 358.664C422.43 358.253 422.224 357.703 422.224 357.012C422.224 356.284 422.43 355.705 422.84 355.276C423.27 354.847 423.839 354.632 424.548 354.632C425.258 354.632 425.818 354.847 426.228 355.276C426.658 355.705 426.872 356.284 426.872 357.012C426.872 357.703 426.658 358.253 426.228 358.664C425.818 359.075 425.258 359.28 424.548 359.28Z" fill="#2D2A2A"/>
<path d="M32.604 470V449.56H38.4C40.2667 449.56 41.7227 450.027 42.768 450.96C43.832 451.893 44.364 453.191 44.364 454.852C44.364 455.785 44.168 456.597 43.776 457.288C43.384 457.979 42.824 458.511 42.096 458.884C41.3867 459.257 40.528 459.435 39.52 459.416V458.996C40.6027 458.977 41.536 459.183 42.32 459.612C43.1227 460.041 43.7387 460.657 44.168 461.46C44.616 462.263 44.84 463.215 44.84 464.316C44.84 465.473 44.5973 466.481 44.112 467.34C43.6267 468.199 42.936 468.861 42.04 469.328C41.144 469.776 40.0707 470 38.82 470H32.604ZM35.068 467.732H38.54C39.716 467.732 40.64 467.424 41.312 466.808C42.0027 466.173 42.348 465.315 42.348 464.232C42.348 463.112 42.0027 462.207 41.312 461.516C40.64 460.807 39.716 460.452 38.54 460.452H35.068V467.732ZM35.068 458.268H38.372C39.4547 458.268 40.304 457.979 40.92 457.4C41.5547 456.821 41.872 456.037 41.872 455.048C41.872 454.059 41.564 453.275 40.948 452.696C40.332 452.117 39.4827 451.828 38.4 451.828H35.068V458.268Z" fill="#2D2A2A"/>
<path d="M53.8451 470.28C52.2211 470.28 50.9424 469.869 50.0091 469.048C49.0757 468.208 48.6091 467.079 48.6091 465.66C48.6091 464.223 49.0757 463.093 50.0091 462.272C50.9424 461.451 52.2024 461.04 53.7891 461.04H58.5491V459.5C58.5491 458.548 58.2597 457.82 57.6811 457.316C57.1211 456.793 56.3184 456.532 55.2731 456.532C54.3584 456.532 53.5931 456.728 52.9771 457.12C52.3611 457.493 52.0064 458.007 51.9131 458.66H49.3931C49.5611 457.335 50.1864 456.28 51.2691 455.496C52.3517 454.712 53.7051 454.32 55.3291 454.32C57.1024 454.32 58.5024 454.777 59.5291 455.692C60.5557 456.607 61.0691 457.848 61.0691 459.416V470H58.6051V467.06H58.1851L58.6051 466.64C58.6051 467.76 58.1664 468.647 57.2891 469.3C56.4304 469.953 55.2824 470.28 53.8451 470.28ZM54.4611 468.292C55.6557 468.292 56.6357 467.993 57.4011 467.396C58.1664 466.799 58.5491 466.033 58.5491 465.1V462.916H53.8451C53.0051 462.916 52.3424 463.149 51.8571 463.616C51.3717 464.083 51.1291 464.717 51.1291 465.52C51.1291 466.379 51.4184 467.06 51.9971 467.564C52.5944 468.049 53.4157 468.292 54.4611 468.292Z" fill="#2D2A2A"/>
<path d="M72.0901 470.28C70.8581 470.28 69.7755 470.047 68.8421 469.58C67.9275 469.113 67.2181 468.441 66.7141 467.564C66.2101 466.668 65.9581 465.613 65.9581 464.4V460.2C65.9581 458.968 66.2101 457.913 66.7141 457.036C67.2181 456.159 67.9275 455.487 68.8421 455.02C69.7755 454.553 70.8581 454.32 72.0901 454.32C73.8635 454.32 75.2915 454.796 76.3741 455.748C77.4568 456.7 78.0261 457.997 78.0821 459.64H75.5621C75.5061 458.651 75.1701 457.895 74.5541 457.372C73.9568 456.831 73.1355 456.56 72.0901 456.56C70.9888 456.56 70.1115 456.877 69.4581 457.512C68.8048 458.128 68.4781 459.015 68.4781 460.172V464.4C68.4781 465.557 68.8048 466.453 69.4581 467.088C70.1115 467.723 70.9888 468.04 72.0901 468.04C73.1355 468.04 73.9568 467.769 74.5541 467.228C75.1701 466.687 75.5061 465.931 75.5621 464.96H78.0821C78.0261 466.603 77.4568 467.9 76.3741 468.852C75.2915 469.804 73.8635 470.28 72.0901 470.28Z" fill="#2D2A2A"/>
<path d="M83.0272 470V449.56H85.5472V460.956H88.5152L92.9952 454.6H95.8792L90.6992 461.936L95.9632 470H93.0232L88.5432 463.14H85.5472V470H83.0272Z" fill="#2D2A2A"/>
<path d="M122.345 470.28C121.132 470.28 120.068 470.037 119.153 469.552C118.257 469.067 117.557 468.385 117.053 467.508C116.568 466.612 116.325 465.576 116.325 464.4V460.2C116.325 459.005 116.568 457.969 117.053 457.092C117.557 456.215 118.257 455.533 119.153 455.048C120.068 454.563 121.132 454.32 122.345 454.32C123.559 454.32 124.613 454.563 125.509 455.048C126.424 455.533 127.124 456.215 127.609 457.092C128.113 457.969 128.365 459.005 128.365 460.2V462.916H118.789V464.4C118.789 465.613 119.097 466.547 119.713 467.2C120.329 467.835 121.207 468.152 122.345 468.152C123.316 468.152 124.1 467.984 124.697 467.648C125.295 467.293 125.659 466.771 125.789 466.08H128.309C128.141 467.368 127.507 468.395 126.405 469.16C125.323 469.907 123.969 470.28 122.345 470.28ZM125.901 461.236V460.2C125.901 458.987 125.593 458.053 124.977 457.4C124.38 456.747 123.503 456.42 122.345 456.42C121.207 456.42 120.329 456.747 119.713 457.4C119.097 458.053 118.789 458.987 118.789 460.2V461.012H126.097L125.901 461.236Z" fill="#2D2A2A"/>
<path d="M133.31 470V454.6H135.83V457.54H136.362L135.83 458.128C135.83 456.915 136.194 455.981 136.922 455.328C137.65 454.656 138.658 454.32 139.946 454.32C141.496 454.32 142.728 454.796 143.642 455.748C144.557 456.7 145.014 457.997 145.014 459.64V470H142.494V459.92C142.494 458.819 142.196 457.979 141.598 457.4C141.02 456.803 140.226 456.504 139.218 456.504C138.173 456.504 137.342 456.821 136.726 457.456C136.129 458.091 135.83 459.005 135.83 460.2V470H133.31Z" fill="#2D2A2A"/>
<path d="M155.027 470.28C153.497 470.28 152.255 469.767 151.303 468.74C150.37 467.713 149.903 466.323 149.903 464.568V460.06C149.903 458.287 150.37 456.887 151.303 455.86C152.237 454.833 153.478 454.32 155.027 454.32C156.297 454.32 157.314 454.665 158.079 455.356C158.845 456.047 159.227 456.971 159.227 458.128L158.723 457.54H159.283L159.227 454.04V449.56H161.747V470H159.227V467.06H158.723L159.227 466.472C159.227 467.648 158.845 468.581 158.079 469.272C157.314 469.944 156.297 470.28 155.027 470.28ZM155.867 468.096C156.913 468.096 157.734 467.769 158.331 467.116C158.929 466.463 159.227 465.557 159.227 464.4V460.2C159.227 459.043 158.929 458.137 158.331 457.484C157.734 456.831 156.913 456.504 155.867 456.504C154.803 456.504 153.963 456.821 153.347 457.456C152.731 458.091 152.423 459.005 152.423 460.2V464.4C152.423 465.595 152.731 466.509 153.347 467.144C153.963 467.779 154.803 468.096 155.867 468.096Z" fill="#2D2A2A"/>
</svg>
